<?xml version="1.0" encoding="utf-8"?>
<svg xmlns="http://www.w3.org/2000/svg" xmlns:xlink="http://www.w3.org/1999/xlink" width="480" height="384" viewBox="0 0 1920 1536">
<defs>
  <clipPath id="clip570">
    <rect x="0" y="0" width="1920" height="1536"/>
  </clipPath>
</defs>
<path clip-path="url(#clip570)" d="M0 1536 L1920 1536 L1920 0 L0 0  Z" fill="#ffffff" fill-rule="evenodd" fill-opacity="1"/>
<defs>
  <clipPath id="clip571">
    <rect x="180" y="135" width="1694" height="1209"/>
  </clipPath>
</defs>
<path clip-path="url(#clip570)" d="M404.435 1343.4 L1872.76 1343.4 L1872.76 135.568 L404.435 135.568  Z" fill="#ffffff" fill-rule="evenodd" fill-opacity="1"/>
<defs>
  <clipPath id="clip572">
    <rect x="404" y="135" width="1469" height="1209"/>
  </clipPath>
</defs>
<polyline clip-path="url(#clip572)" style="stroke:#000000; stroke-linecap:round; stroke-linejoin:round; stroke-width:2; stroke-opacity:0.1; fill:none" points="599.903,1343.4 599.903,135.568 "/>
<polyline clip-path="url(#clip572)" style="stroke:#000000; stroke-linecap:round; stroke-linejoin:round; stroke-width:2; stroke-opacity:0.1; fill:none" points="907.727,1343.4 907.727,135.568 "/>
<polyline clip-path="url(#clip572)" style="stroke:#000000; stroke-linecap:round; stroke-linejoin:round; stroke-width:2; stroke-opacity:0.1; fill:none" points="1215.55,1343.4 1215.55,135.568 "/>
<polyline clip-path="url(#clip572)" style="stroke:#000000; stroke-linecap:round; stroke-linejoin:round; stroke-width:2; stroke-opacity:0.1; fill:none" points="1523.38,1343.4 1523.38,135.568 "/>
<polyline clip-path="url(#clip572)" style="stroke:#000000; stroke-linecap:round; stroke-linejoin:round; stroke-width:2; stroke-opacity:0.1; fill:none" points="1831.2,1343.4 1831.2,135.568 "/>
<polyline clip-path="url(#clip572)" style="stroke:#000000; stroke-linecap:round; stroke-linejoin:round; stroke-width:2; stroke-opacity:0.1; fill:none" points="404.435,1188.15 1872.76,1188.15 "/>
<polyline clip-path="url(#clip572)" style="stroke:#000000; stroke-linecap:round; stroke-linejoin:round; stroke-width:2; stroke-opacity:0.1; fill:none" points="404.435,1010.11 1872.76,1010.11 "/>
<polyline clip-path="url(#clip572)" style="stroke:#000000; stroke-linecap:round; stroke-linejoin:round; stroke-width:2; stroke-opacity:0.1; fill:none" points="404.435,832.068 1872.76,832.068 "/>
<polyline clip-path="url(#clip572)" style="stroke:#000000; stroke-linecap:round; stroke-linejoin:round; stroke-width:2; stroke-opacity:0.1; fill:none" points="404.435,654.026 1872.76,654.026 "/>
<polyline clip-path="url(#clip572)" style="stroke:#000000; stroke-linecap:round; stroke-linejoin:round; stroke-width:2; stroke-opacity:0.1; fill:none" points="404.435,475.984 1872.76,475.984 "/>
<polyline clip-path="url(#clip572)" style="stroke:#000000; stroke-linecap:round; stroke-linejoin:round; stroke-width:2; stroke-opacity:0.1; fill:none" points="404.435,297.942 1872.76,297.942 "/>
<polyline clip-path="url(#clip570)" style="stroke:#000000; stroke-linecap:round; stroke-linejoin:round; stroke-width:4; stroke-opacity:1; fill:none" points="404.435,1343.4 1872.76,1343.4 "/>
<polyline clip-path="url(#clip570)" style="stroke:#000000; stroke-linecap:round; stroke-linejoin:round; stroke-width:4; stroke-opacity:1; fill:none" points="599.903,1343.4 599.903,1324.51 "/>
<polyline clip-path="url(#clip570)" style="stroke:#000000; stroke-linecap:round; stroke-linejoin:round; stroke-width:4; stroke-opacity:1; fill:none" points="907.727,1343.4 907.727,1324.51 "/>
<polyline clip-path="url(#clip570)" style="stroke:#000000; stroke-linecap:round; stroke-linejoin:round; stroke-width:4; stroke-opacity:1; fill:none" points="1215.55,1343.4 1215.55,1324.51 "/>
<polyline clip-path="url(#clip570)" style="stroke:#000000; stroke-linecap:round; stroke-linejoin:round; stroke-width:4; stroke-opacity:1; fill:none" points="1523.38,1343.4 1523.38,1324.51 "/>
<polyline clip-path="url(#clip570)" style="stroke:#000000; stroke-linecap:round; stroke-linejoin:round; stroke-width:4; stroke-opacity:1; fill:none" points="1831.2,1343.4 1831.2,1324.51 "/>
<path clip-path="url(#clip570)" d="M578.086 1370.48 Q574.475 1370.48 572.646 1374.05 Q570.841 1377.59 570.841 1384.72 Q570.841 1391.83 572.646 1395.39 Q574.475 1398.93 578.086 1398.93 Q581.72 1398.93 583.526 1395.39 Q585.355 1391.83 585.355 1384.72 Q585.355 1377.59 583.526 1374.05 Q581.72 1370.48 578.086 1370.48 M578.086 1366.78 Q583.896 1366.78 586.952 1371.39 Q590.03 1375.97 590.03 1384.72 Q590.03 1393.45 586.952 1398.05 Q583.896 1402.64 578.086 1402.64 Q572.276 1402.64 569.197 1398.05 Q566.142 1393.45 566.142 1384.72 Q566.142 1375.97 569.197 1371.39 Q572.276 1366.78 578.086 1366.78 Z" fill="#000000" fill-rule="nonzero" fill-opacity="1" /><path clip-path="url(#clip570)" d="M598.248 1396.08 L603.132 1396.08 L603.132 1401.96 L598.248 1401.96 L598.248 1396.08 Z" fill="#000000" fill-rule="nonzero" fill-opacity="1" /><path clip-path="url(#clip570)" d="M617.345 1398.03 L633.664 1398.03 L633.664 1401.96 L611.72 1401.96 L611.72 1398.03 Q614.382 1395.27 618.965 1390.64 Q623.572 1385.99 624.752 1384.65 Q626.998 1382.13 627.877 1380.39 Q628.78 1378.63 628.78 1376.94 Q628.78 1374.19 626.836 1372.45 Q624.915 1370.71 621.813 1370.71 Q619.614 1370.71 617.16 1371.48 Q614.729 1372.24 611.952 1373.79 L611.952 1369.07 Q614.776 1367.94 617.229 1367.36 Q619.683 1366.78 621.72 1366.78 Q627.09 1366.78 630.285 1369.46 Q633.479 1372.15 633.479 1376.64 Q633.479 1378.77 632.669 1380.69 Q631.882 1382.59 629.776 1385.18 Q629.197 1385.85 626.095 1389.07 Q622.993 1392.26 617.345 1398.03 Z" fill="#000000" fill-rule="nonzero" fill-opacity="1" /><path clip-path="url(#clip570)" d="M884.869 1370.48 Q881.257 1370.48 879.429 1374.05 Q877.623 1377.59 877.623 1384.72 Q877.623 1391.83 879.429 1395.39 Q881.257 1398.93 884.869 1398.93 Q888.503 1398.93 890.308 1395.39 Q892.137 1391.83 892.137 1384.72 Q892.137 1377.59 890.308 1374.05 Q888.503 1370.48 884.869 1370.48 M884.869 1366.78 Q890.679 1366.78 893.734 1371.39 Q896.813 1375.97 896.813 1384.72 Q896.813 1393.45 893.734 1398.05 Q890.679 1402.64 884.869 1402.64 Q879.058 1402.64 875.98 1398.05 Q872.924 1393.45 872.924 1384.72 Q872.924 1375.97 875.98 1371.39 Q879.058 1366.78 884.869 1366.78 Z" fill="#000000" fill-rule="nonzero" fill-opacity="1" /><path clip-path="url(#clip570)" d="M905.03 1396.08 L909.915 1396.08 L909.915 1401.96 L905.03 1401.96 L905.03 1396.08 Z" fill="#000000" fill-rule="nonzero" fill-opacity="1" /><path clip-path="url(#clip570)" d="M932.947 1371.48 L921.142 1389.93 L932.947 1389.93 L932.947 1371.48 M931.72 1367.4 L937.6 1367.4 L937.6 1389.93 L942.53 1389.93 L942.53 1393.82 L937.6 1393.82 L937.6 1401.96 L932.947 1401.96 L932.947 1393.82 L917.345 1393.82 L917.345 1389.3 L931.72 1367.4 Z" fill="#000000" fill-rule="nonzero" fill-opacity="1" /><path clip-path="url(#clip570)" d="M1192.85 1370.48 Q1189.24 1370.48 1187.41 1374.05 Q1185.61 1377.59 1185.61 1384.72 Q1185.61 1391.83 1187.41 1395.39 Q1189.24 1398.93 1192.85 1398.93 Q1196.49 1398.93 1198.29 1395.39 Q1200.12 1391.83 1200.12 1384.72 Q1200.12 1377.59 1198.29 1374.05 Q1196.49 1370.48 1192.85 1370.48 M1192.85 1366.78 Q1198.66 1366.78 1201.72 1371.39 Q1204.8 1375.97 1204.8 1384.72 Q1204.8 1393.45 1201.72 1398.05 Q1198.66 1402.64 1192.85 1402.64 Q1187.04 1402.64 1183.97 1398.05 Q1180.91 1393.45 1180.91 1384.72 Q1180.91 1375.97 1183.97 1371.39 Q1187.04 1366.78 1192.85 1366.78 Z" fill="#000000" fill-rule="nonzero" fill-opacity="1" /><path clip-path="url(#clip570)" d="M1213.02 1396.08 L1217.9 1396.08 L1217.9 1401.96 L1213.02 1401.96 L1213.02 1396.08 Z" fill="#000000" fill-rule="nonzero" fill-opacity="1" /><path clip-path="url(#clip570)" d="M1238.66 1382.82 Q1235.52 1382.82 1233.66 1384.97 Q1231.84 1387.13 1231.84 1390.88 Q1231.84 1394.6 1233.66 1396.78 Q1235.52 1398.93 1238.66 1398.93 Q1241.81 1398.93 1243.64 1396.78 Q1245.49 1394.6 1245.49 1390.88 Q1245.49 1387.13 1243.64 1384.97 Q1241.81 1382.82 1238.66 1382.82 M1247.95 1368.17 L1247.95 1372.43 Q1246.19 1371.59 1244.38 1371.15 Q1242.6 1370.71 1240.84 1370.71 Q1236.21 1370.71 1233.76 1373.84 Q1231.33 1376.96 1230.98 1383.28 Q1232.35 1381.27 1234.41 1380.2 Q1236.47 1379.12 1238.94 1379.12 Q1244.15 1379.12 1247.16 1382.29 Q1250.19 1385.44 1250.19 1390.88 Q1250.19 1396.2 1247.04 1399.42 Q1243.9 1402.64 1238.66 1402.64 Q1232.67 1402.64 1229.5 1398.05 Q1226.33 1393.45 1226.33 1384.72 Q1226.33 1376.52 1230.22 1371.66 Q1234.1 1366.78 1240.66 1366.78 Q1242.41 1366.78 1244.2 1367.13 Q1246 1367.47 1247.95 1368.17 Z" fill="#000000" fill-rule="nonzero" fill-opacity="1" /><path clip-path="url(#clip570)" d="M1500.81 1370.48 Q1497.2 1370.48 1495.37 1374.05 Q1493.56 1377.59 1493.56 1384.72 Q1493.56 1391.83 1495.37 1395.39 Q1497.2 1398.93 1500.81 1398.93 Q1504.44 1398.93 1506.25 1395.39 Q1508.07 1391.83 1508.07 1384.72 Q1508.07 1377.59 1506.25 1374.05 Q1504.44 1370.48 1500.81 1370.48 M1500.81 1366.78 Q1506.62 1366.78 1509.67 1371.39 Q1512.75 1375.97 1512.75 1384.72 Q1512.75 1393.45 1509.67 1398.05 Q1506.62 1402.64 1500.81 1402.64 Q1495 1402.64 1491.92 1398.05 Q1488.86 1393.45 1488.86 1384.72 Q1488.86 1375.97 1491.92 1371.39 Q1495 1366.78 1500.81 1366.78 Z" fill="#000000" fill-rule="nonzero" fill-opacity="1" /><path clip-path="url(#clip570)" d="M1520.97 1396.08 L1525.85 1396.08 L1525.85 1401.96 L1520.97 1401.96 L1520.97 1396.08 Z" fill="#000000" fill-rule="nonzero" fill-opacity="1" /><path clip-path="url(#clip570)" d="M1546.04 1385.55 Q1542.7 1385.55 1540.78 1387.33 Q1538.88 1389.12 1538.88 1392.24 Q1538.88 1395.37 1540.78 1397.15 Q1542.7 1398.93 1546.04 1398.93 Q1549.37 1398.93 1551.29 1397.15 Q1553.21 1395.34 1553.21 1392.24 Q1553.21 1389.12 1551.29 1387.33 Q1549.39 1385.55 1546.04 1385.55 M1541.36 1383.56 Q1538.35 1382.82 1536.66 1380.76 Q1535 1378.7 1535 1375.74 Q1535 1371.59 1537.94 1369.19 Q1540.9 1366.78 1546.04 1366.78 Q1551.2 1366.78 1554.14 1369.19 Q1557.08 1371.59 1557.08 1375.74 Q1557.08 1378.7 1555.39 1380.76 Q1553.72 1382.82 1550.74 1383.56 Q1554.12 1384.35 1555.99 1386.64 Q1557.89 1388.93 1557.89 1392.24 Q1557.89 1397.26 1554.81 1399.95 Q1551.75 1402.64 1546.04 1402.64 Q1540.32 1402.64 1537.24 1399.95 Q1534.19 1397.26 1534.19 1392.24 Q1534.19 1388.93 1536.08 1386.64 Q1537.98 1384.35 1541.36 1383.56 M1539.65 1376.18 Q1539.65 1378.86 1541.32 1380.37 Q1543.01 1381.87 1546.04 1381.87 Q1549.05 1381.87 1550.74 1380.37 Q1552.45 1378.86 1552.45 1376.18 Q1552.45 1373.49 1550.74 1371.99 Q1549.05 1370.48 1546.04 1370.48 Q1543.01 1370.48 1541.32 1371.99 Q1539.65 1373.49 1539.65 1376.18 Z" fill="#000000" fill-rule="nonzero" fill-opacity="1" /><path clip-path="url(#clip570)" d="M1798.35 1398.03 L1805.99 1398.03 L1805.99 1371.66 L1797.68 1373.33 L1797.68 1369.07 L1805.95 1367.4 L1810.62 1367.4 L1810.62 1398.03 L1818.26 1398.03 L1818.26 1401.96 L1798.35 1401.96 L1798.35 1398.03 Z" fill="#000000" fill-rule="nonzero" fill-opacity="1" /><path clip-path="url(#clip570)" d="M1827.7 1396.08 L1832.59 1396.08 L1832.59 1401.96 L1827.7 1401.96 L1827.7 1396.08 Z" fill="#000000" fill-rule="nonzero" fill-opacity="1" /><path clip-path="url(#clip570)" d="M1852.77 1370.48 Q1849.16 1370.48 1847.33 1374.05 Q1845.53 1377.59 1845.53 1384.72 Q1845.53 1391.83 1847.33 1395.39 Q1849.16 1398.93 1852.77 1398.93 Q1856.41 1398.93 1858.21 1395.39 Q1860.04 1391.83 1860.04 1384.72 Q1860.04 1377.59 1858.21 1374.05 Q1856.41 1370.48 1852.77 1370.48 M1852.77 1366.78 Q1858.58 1366.78 1861.64 1371.39 Q1864.72 1375.97 1864.72 1384.72 Q1864.72 1393.45 1861.64 1398.05 Q1858.58 1402.64 1852.77 1402.64 Q1846.96 1402.64 1843.88 1398.05 Q1840.83 1393.45 1840.83 1384.72 Q1840.83 1375.97 1843.88 1371.39 Q1846.96 1366.78 1852.77 1366.78 Z" fill="#000000" fill-rule="nonzero" fill-opacity="1" /><path clip-path="url(#clip570)" d="M871.108 1437.21 L871.108 1443.99 Q867.862 1440.96 864.17 1439.47 Q860.509 1437.97 856.372 1437.97 Q848.224 1437.97 843.895 1442.97 Q839.566 1447.93 839.566 1457.36 Q839.566 1466.75 843.895 1471.74 Q848.224 1476.71 856.372 1476.71 Q860.509 1476.71 864.17 1475.21 Q867.862 1473.72 871.108 1470.69 L871.108 1477.41 Q867.735 1479.7 863.947 1480.85 Q860.191 1481.99 855.99 1481.99 Q845.2 1481.99 838.993 1475.4 Q832.787 1468.78 832.787 1457.36 Q832.787 1445.9 838.993 1439.31 Q845.2 1432.69 855.99 1432.69 Q860.255 1432.69 864.011 1433.83 Q867.798 1434.95 871.108 1437.21 Z" fill="#000000" fill-rule="nonzero" fill-opacity="1" /><path clip-path="url(#clip570)" d="M880.561 1445.42 L886.386 1445.42 L886.386 1462.16 L902.905 1445.42 L910.098 1445.42 L896.476 1459.2 L911.849 1481.07 L905.292 1481.07 L892.656 1463.08 L886.386 1469.45 L886.386 1481.07 L880.561 1481.07 L880.561 1445.42 Z" fill="#000000" fill-rule="nonzero" fill-opacity="1" /><path clip-path="url(#clip570)" d="M933.97 1449.53 Q929.259 1449.53 926.522 1453.22 Q923.785 1456.88 923.785 1463.28 Q923.785 1469.67 926.49 1473.37 Q929.227 1477.03 933.97 1477.03 Q938.648 1477.03 941.386 1473.33 Q944.123 1469.64 944.123 1463.28 Q944.123 1456.94 941.386 1453.25 Q938.648 1449.53 933.97 1449.53 M933.97 1444.56 Q941.609 1444.56 945.969 1449.53 Q950.33 1454.49 950.33 1463.28 Q950.33 1472.03 945.969 1477.03 Q941.609 1481.99 933.97 1481.99 Q926.299 1481.99 921.939 1477.03 Q917.61 1472.03 917.61 1463.28 Q917.61 1454.49 921.939 1449.53 Q926.299 1444.56 933.97 1444.56 Z" fill="#000000" fill-rule="nonzero" fill-opacity="1" /><path clip-path="url(#clip570)" d="M965.703 1475.72 L965.703 1494.63 L959.814 1494.63 L959.814 1445.42 L965.703 1445.42 L965.703 1450.83 Q967.549 1447.65 970.35 1446.12 Q973.182 1444.56 977.097 1444.56 Q983.59 1444.56 987.633 1449.72 Q991.707 1454.87 991.707 1463.28 Q991.707 1471.68 987.633 1476.83 Q983.59 1481.99 977.097 1481.99 Q973.182 1481.99 970.35 1480.46 Q967.549 1478.9 965.703 1475.72 M985.627 1463.28 Q985.627 1456.81 982.954 1453.15 Q980.312 1449.46 975.665 1449.46 Q971.018 1449.46 968.345 1453.15 Q965.703 1456.81 965.703 1463.28 Q965.703 1469.74 968.345 1473.43 Q971.018 1477.09 975.665 1477.09 Q980.312 1477.09 982.954 1473.43 Q985.627 1469.74 985.627 1463.28 Z" fill="#000000" fill-rule="nonzero" fill-opacity="1" /><path clip-path="url(#clip570)" d="M1015.23 1449.53 Q1010.52 1449.53 1007.78 1453.22 Q1005.04 1456.88 1005.04 1463.28 Q1005.04 1469.67 1007.75 1473.37 Q1010.49 1477.03 1015.23 1477.03 Q1019.91 1477.03 1022.64 1473.33 Q1025.38 1469.64 1025.38 1463.28 Q1025.38 1456.94 1022.64 1453.25 Q1019.91 1449.53 1015.23 1449.53 M1015.23 1444.56 Q1022.87 1444.56 1027.23 1449.53 Q1031.59 1454.49 1031.59 1463.28 Q1031.59 1472.03 1027.23 1477.03 Q1022.87 1481.99 1015.23 1481.99 Q1007.56 1481.99 1003.2 1477.03 Q998.868 1472.03 998.868 1463.28 Q998.868 1454.49 1003.2 1449.53 Q1007.56 1444.56 1015.23 1444.56 Z" fill="#000000" fill-rule="nonzero" fill-opacity="1" /><path clip-path="url(#clip570)" d="M1066.95 1446.79 L1066.95 1452.26 Q1064.47 1450.89 1061.95 1450.23 Q1059.47 1449.53 1056.92 1449.53 Q1051.23 1449.53 1048.07 1453.15 Q1044.92 1456.75 1044.92 1463.28 Q1044.92 1469.8 1048.07 1473.43 Q1051.23 1477.03 1056.92 1477.03 Q1059.47 1477.03 1061.95 1476.36 Q1064.47 1475.66 1066.95 1474.29 L1066.95 1479.7 Q1064.5 1480.85 1061.86 1481.42 Q1059.25 1481.99 1056.29 1481.99 Q1048.23 1481.99 1043.49 1476.93 Q1038.75 1471.87 1038.75 1463.28 Q1038.75 1454.55 1043.52 1449.56 Q1048.33 1444.56 1056.67 1444.56 Q1059.37 1444.56 1061.95 1445.13 Q1064.53 1445.67 1066.95 1446.79 Z" fill="#000000" fill-rule="nonzero" fill-opacity="1" /><path clip-path="url(#clip570)" d="M1072.9 1445.42 L1107.05 1445.42 L1107.05 1450.1 L1092.86 1450.1 L1092.86 1481.07 L1087.1 1481.07 L1087.1 1450.1 L1072.9 1450.1 L1072.9 1445.42 Z" fill="#000000" fill-rule="nonzero" fill-opacity="1" /><path clip-path="url(#clip570)" d="M1137.29 1470.5 Q1137.29 1467.64 1135.19 1466.14 Q1133.12 1464.64 1129.11 1464.64 L1120.77 1464.64 L1120.77 1476.39 L1129.11 1476.39 Q1133.12 1476.39 1135.19 1474.89 Q1137.29 1473.37 1137.29 1470.5 M1114.88 1445.42 L1120.77 1445.42 L1120.77 1459.97 L1129.37 1459.97 Q1136.18 1459.97 1139.84 1462.58 Q1143.53 1465.15 1143.53 1470.5 Q1143.53 1475.85 1139.84 1478.46 Q1136.18 1481.07 1129.37 1481.07 L1114.88 1481.07 L1114.88 1445.42 Z" fill="#000000" fill-rule="nonzero" fill-opacity="1" /><path clip-path="url(#clip570)" d="M1179.91 1475.72 L1179.91 1494.63 L1174.02 1494.63 L1174.02 1445.42 L1179.91 1445.42 L1179.91 1450.83 Q1181.75 1447.65 1184.56 1446.12 Q1187.39 1444.56 1191.3 1444.56 Q1197.8 1444.56 1201.84 1449.72 Q1205.91 1454.87 1205.91 1463.28 Q1205.91 1471.68 1201.84 1476.83 Q1197.8 1481.99 1191.3 1481.99 Q1187.39 1481.99 1184.56 1480.46 Q1181.75 1478.9 1179.91 1475.72 M1199.83 1463.28 Q1199.83 1456.81 1197.16 1453.15 Q1194.52 1449.46 1189.87 1449.46 Q1185.22 1449.46 1182.55 1453.15 Q1179.91 1456.81 1179.91 1463.28 Q1179.91 1469.74 1182.55 1473.43 Q1185.22 1477.09 1189.87 1477.09 Q1194.52 1477.09 1197.16 1473.43 Q1199.83 1469.74 1199.83 1463.28 Z" fill="#000000" fill-rule="nonzero" fill-opacity="1" /><path clip-path="url(#clip570)" d="M1229.43 1449.53 Q1224.72 1449.53 1221.99 1453.22 Q1219.25 1456.88 1219.25 1463.28 Q1219.25 1469.67 1221.95 1473.37 Q1224.69 1477.03 1229.43 1477.03 Q1234.11 1477.03 1236.85 1473.33 Q1239.59 1469.64 1239.59 1463.28 Q1239.59 1456.94 1236.85 1453.25 Q1234.11 1449.53 1229.43 1449.53 M1229.43 1444.56 Q1237.07 1444.56 1241.43 1449.53 Q1245.79 1454.49 1245.79 1463.28 Q1245.79 1472.03 1241.43 1477.03 Q1237.07 1481.99 1229.43 1481.99 Q1221.76 1481.99 1217.4 1477.03 Q1213.07 1472.03 1213.07 1463.28 Q1213.07 1454.49 1217.4 1449.53 Q1221.76 1444.56 1229.43 1444.56 Z" fill="#000000" fill-rule="nonzero" fill-opacity="1" /><path clip-path="url(#clip570)" d="M1281.16 1446.79 L1281.16 1452.26 Q1278.67 1450.89 1276.16 1450.23 Q1273.68 1449.53 1271.13 1449.53 Q1265.43 1449.53 1262.28 1453.15 Q1259.13 1456.75 1259.13 1463.28 Q1259.13 1469.8 1262.28 1473.43 Q1265.43 1477.03 1271.13 1477.03 Q1273.68 1477.03 1276.16 1476.36 Q1278.67 1475.66 1281.16 1474.29 L1281.16 1479.7 Q1278.7 1480.85 1276.06 1481.42 Q1273.45 1481.99 1270.49 1481.99 Q1262.44 1481.99 1257.7 1476.93 Q1252.96 1471.87 1252.96 1463.28 Q1252.96 1454.55 1257.73 1449.56 Q1262.54 1444.56 1270.87 1444.56 Q1273.58 1444.56 1276.16 1445.13 Q1278.74 1445.67 1281.16 1446.79 Z" fill="#000000" fill-rule="nonzero" fill-opacity="1" /><path clip-path="url(#clip570)" d="M1287.11 1445.42 L1321.26 1445.42 L1321.26 1450.1 L1307.06 1450.1 L1307.06 1481.07 L1301.3 1481.07 L1301.3 1450.1 L1287.11 1450.1 L1287.11 1445.42 Z" fill="#000000" fill-rule="nonzero" fill-opacity="1" /><path clip-path="url(#clip570)" d="M1345.51 1463.15 Q1338.41 1463.15 1335.68 1464.77 Q1332.94 1466.39 1332.94 1470.31 Q1332.94 1473.43 1334.98 1475.28 Q1337.05 1477.09 1340.58 1477.09 Q1345.45 1477.09 1348.38 1473.65 Q1351.34 1470.18 1351.34 1464.45 L1351.34 1463.15 L1345.51 1463.15 M1357.19 1460.73 L1357.19 1481.07 L1351.34 1481.07 L1351.34 1475.66 Q1349.33 1478.9 1346.34 1480.46 Q1343.35 1481.99 1339.02 1481.99 Q1333.55 1481.99 1330.3 1478.94 Q1327.08 1475.85 1327.08 1470.69 Q1327.08 1464.68 1331.09 1461.62 Q1335.14 1458.57 1343.13 1458.57 L1351.34 1458.57 L1351.34 1457.99 Q1351.34 1453.95 1348.66 1451.75 Q1346.02 1449.53 1341.22 1449.53 Q1338.16 1449.53 1335.26 1450.26 Q1332.37 1450.99 1329.69 1452.45 L1329.69 1447.04 Q1332.91 1445.8 1335.93 1445.2 Q1338.96 1444.56 1341.82 1444.56 Q1349.55 1444.56 1353.37 1448.57 Q1357.19 1452.58 1357.19 1460.73 Z" fill="#000000" fill-rule="nonzero" fill-opacity="1" /><path clip-path="url(#clip570)" d="M1370.75 1472.98 L1377.47 1472.98 L1377.47 1478.46 L1372.25 1488.64 L1368.14 1488.64 L1370.75 1478.46 L1370.75 1472.98 Z" fill="#000000" fill-rule="nonzero" fill-opacity="1" /><path clip-path="url(#clip570)" d="M1431.48 1464.49 L1430.08 1457.13 Q1428.65 1449.59 1422.98 1449.59 Q1418.72 1449.59 1416.78 1453.09 Q1414.33 1457.48 1414.33 1463.28 Q1414.33 1470.28 1416.71 1473.62 Q1419.13 1477.03 1422.98 1477.03 Q1427.25 1477.03 1429.54 1470.25 L1431.48 1464.49 M1434.76 1454.75 L1437.91 1445.42 L1443.13 1445.42 L1436.61 1464.74 L1437.88 1471.71 Q1438.17 1473.27 1439.28 1474.57 Q1440.58 1476.1 1441.6 1476.1 L1444.4 1476.1 L1444.4 1481.07 L1440.9 1481.07 Q1437.91 1481.07 1435.24 1478.39 Q1433.93 1477.06 1433.39 1474.26 Q1431.93 1477.79 1428.94 1480.56 Q1427.53 1481.86 1422.98 1481.86 Q1415.5 1481.86 1411.88 1477.03 Q1408.15 1472.03 1408.15 1463.28 Q1408.15 1453.92 1412.19 1449.53 Q1416.68 1444.62 1422.98 1444.62 Q1432.88 1444.62 1434.76 1454.75 Z" fill="#000000" fill-rule="nonzero" fill-opacity="1" /><polyline clip-path="url(#clip570)" style="stroke:#000000; stroke-linecap:round; stroke-linejoin:round; stroke-width:4; stroke-opacity:1; fill:none" points="404.435,1343.4 404.435,135.568 "/>
<polyline clip-path="url(#clip570)" style="stroke:#000000; stroke-linecap:round; stroke-linejoin:round; stroke-width:4; stroke-opacity:1; fill:none" points="404.435,1188.15 423.332,1188.15 "/>
<polyline clip-path="url(#clip570)" style="stroke:#000000; stroke-linecap:round; stroke-linejoin:round; stroke-width:4; stroke-opacity:1; fill:none" points="404.435,1010.11 423.332,1010.11 "/>
<polyline clip-path="url(#clip570)" style="stroke:#000000; stroke-linecap:round; stroke-linejoin:round; stroke-width:4; stroke-opacity:1; fill:none" points="404.435,832.068 423.332,832.068 "/>
<polyline clip-path="url(#clip570)" style="stroke:#000000; stroke-linecap:round; stroke-linejoin:round; stroke-width:4; stroke-opacity:1; fill:none" points="404.435,654.026 423.332,654.026 "/>
<polyline clip-path="url(#clip570)" style="stroke:#000000; stroke-linecap:round; stroke-linejoin:round; stroke-width:4; stroke-opacity:1; fill:none" points="404.435,475.984 423.332,475.984 "/>
<polyline clip-path="url(#clip570)" style="stroke:#000000; stroke-linecap:round; stroke-linejoin:round; stroke-width:4; stroke-opacity:1; fill:none" points="404.435,297.942 423.332,297.942 "/>
<path clip-path="url(#clip570)" d="M132.947 1207.94 L149.266 1207.94 L149.266 1211.88 L127.322 1211.88 L127.322 1207.94 Q129.984 1205.19 134.567 1200.56 Q139.173 1195.91 140.354 1194.56 Q142.599 1192.04 143.479 1190.31 Q144.382 1188.55 144.382 1186.86 Q144.382 1184.1 142.437 1182.37 Q140.516 1180.63 137.414 1180.63 Q135.215 1180.63 132.761 1181.39 Q130.331 1182.16 127.553 1183.71 L127.553 1178.99 Q130.377 1177.85 132.831 1177.27 Q135.284 1176.69 137.322 1176.69 Q142.692 1176.69 145.886 1179.38 Q149.081 1182.06 149.081 1186.56 Q149.081 1188.68 148.271 1190.61 Q147.483 1192.5 145.377 1195.1 Q144.798 1195.77 141.696 1198.99 Q138.595 1202.18 132.947 1207.94 Z" fill="#000000" fill-rule="nonzero" fill-opacity="1" /><path clip-path="url(#clip570)" d="M159.081 1206 L163.965 1206 L163.965 1211.88 L159.081 1211.88 L159.081 1206 Z" fill="#000000" fill-rule="nonzero" fill-opacity="1" /><path clip-path="url(#clip570)" d="M174.196 1177.32 L192.553 1177.32 L192.553 1181.25 L178.479 1181.25 L178.479 1189.73 Q179.497 1189.38 180.516 1189.22 Q181.534 1189.03 182.553 1189.03 Q188.34 1189.03 191.719 1192.2 Q195.099 1195.37 195.099 1200.79 Q195.099 1206.37 191.627 1209.47 Q188.155 1212.55 181.835 1212.55 Q179.659 1212.55 177.391 1212.18 Q175.145 1211.81 172.738 1211.07 L172.738 1206.37 Q174.821 1207.5 177.044 1208.06 Q179.266 1208.62 181.743 1208.62 Q185.747 1208.62 188.085 1206.51 Q190.423 1204.4 190.423 1200.79 Q190.423 1197.18 188.085 1195.07 Q185.747 1192.97 181.743 1192.97 Q179.868 1192.97 177.993 1193.38 Q176.141 1193.8 174.196 1194.68 L174.196 1177.32 Z" fill="#000000" fill-rule="nonzero" fill-opacity="1" /><path clip-path="url(#clip570)" d="M214.312 1180.4 Q210.701 1180.4 208.872 1183.96 Q207.067 1187.5 207.067 1194.63 Q207.067 1201.74 208.872 1205.3 Q210.701 1208.85 214.312 1208.85 Q217.946 1208.85 219.752 1205.3 Q221.58 1201.74 221.58 1194.63 Q221.58 1187.5 219.752 1183.96 Q217.946 1180.4 214.312 1180.4 M214.312 1176.69 Q220.122 1176.69 223.178 1181.3 Q226.256 1185.88 226.256 1194.63 Q226.256 1203.36 223.178 1207.97 Q220.122 1212.55 214.312 1212.55 Q208.502 1212.55 205.423 1207.97 Q202.367 1203.36 202.367 1194.63 Q202.367 1185.88 205.423 1181.3 Q208.502 1176.69 214.312 1176.69 Z" fill="#000000" fill-rule="nonzero" fill-opacity="1" /><path clip-path="url(#clip570)" d="M262.645 1186.42 L252.066 1197.04 L262.645 1207.62 L259.89 1210.42 L249.265 1199.8 L238.64 1210.42 L235.909 1207.62 L246.464 1197.04 L235.909 1186.42 L238.64 1183.62 L249.265 1194.24 L259.89 1183.62 L262.645 1186.42 Z" fill="#000000" fill-rule="nonzero" fill-opacity="1" /><path clip-path="url(#clip570)" d="M275.006 1207.94 L282.645 1207.94 L282.645 1181.58 L274.335 1183.24 L274.335 1178.99 L282.599 1177.32 L287.274 1177.32 L287.274 1207.94 L294.913 1207.94 L294.913 1211.88 L275.006 1211.88 L275.006 1207.94 Z" fill="#000000" fill-rule="nonzero" fill-opacity="1" /><path clip-path="url(#clip570)" d="M314.358 1180.4 Q310.747 1180.4 308.918 1183.96 Q307.112 1187.5 307.112 1194.63 Q307.112 1201.74 308.918 1205.3 Q310.747 1208.85 314.358 1208.85 Q317.992 1208.85 319.797 1205.3 Q321.626 1201.74 321.626 1194.63 Q321.626 1187.5 319.797 1183.96 Q317.992 1180.4 314.358 1180.4 M314.358 1176.69 Q320.168 1176.69 323.223 1181.3 Q326.302 1185.88 326.302 1194.63 Q326.302 1203.36 323.223 1207.97 Q320.168 1212.55 314.358 1212.55 Q308.547 1212.55 305.469 1207.97 Q302.413 1203.36 302.413 1194.63 Q302.413 1185.88 305.469 1181.3 Q308.547 1176.69 314.358 1176.69 Z" fill="#000000" fill-rule="nonzero" fill-opacity="1" /><path clip-path="url(#clip570)" d="M326.302 1170.8 L350.414 1170.8 L350.414 1173.99 L326.302 1173.99 L326.302 1170.8 Z" fill="#000000" fill-rule="nonzero" fill-opacity="1" /><path clip-path="url(#clip570)" d="M358.651 1156.39 L373.566 1156.39 L373.566 1159.59 L362.131 1159.59 L362.131 1166.47 Q362.958 1166.19 363.786 1166.06 Q364.613 1165.91 365.441 1165.91 Q370.143 1165.91 372.889 1168.48 Q375.635 1171.06 375.635 1175.46 Q375.635 1179.99 372.814 1182.51 Q369.992 1185.01 364.858 1185.01 Q363.09 1185.01 361.247 1184.71 Q359.422 1184.41 357.466 1183.81 L357.466 1179.99 Q359.159 1180.91 360.965 1181.37 Q362.77 1181.82 364.783 1181.82 Q368.036 1181.82 369.936 1180.11 Q371.836 1178.39 371.836 1175.46 Q371.836 1172.53 369.936 1170.81 Q368.036 1169.1 364.783 1169.1 Q363.259 1169.1 361.736 1169.44 Q360.231 1169.78 358.651 1170.49 L358.651 1156.39 Z" fill="#000000" fill-rule="nonzero" fill-opacity="1" /><path clip-path="url(#clip570)" d="M143.085 1015.2 Q146.442 1015.92 148.317 1018.19 Q150.215 1020.46 150.215 1023.79 Q150.215 1028.91 146.696 1031.71 Q143.178 1034.51 136.697 1034.51 Q134.521 1034.51 132.206 1034.07 Q129.914 1033.65 127.46 1032.8 L127.46 1028.28 Q129.405 1029.42 131.72 1029.99 Q134.034 1030.57 136.558 1030.57 Q140.956 1030.57 143.247 1028.84 Q145.562 1027.1 145.562 1023.79 Q145.562 1020.74 143.409 1019.02 Q141.28 1017.29 137.46 1017.29 L133.433 1017.29 L133.433 1013.44 L137.646 1013.44 Q141.095 1013.44 142.923 1012.08 Q144.752 1010.69 144.752 1008.1 Q144.752 1005.43 142.854 1004.02 Q140.979 1002.59 137.46 1002.59 Q135.539 1002.59 133.34 1003 Q131.141 1003.42 128.502 1004.3 L128.502 1000.13 Q131.164 999.393 133.479 999.023 Q135.817 998.652 137.877 998.652 Q143.201 998.652 146.303 1001.08 Q149.405 1003.49 149.405 1007.61 Q149.405 1010.48 147.761 1012.47 Q146.118 1014.44 143.085 1015.2 Z" fill="#000000" fill-rule="nonzero" fill-opacity="1" /><path clip-path="url(#clip570)" d="M159.081 1027.96 L163.965 1027.96 L163.965 1033.84 L159.081 1033.84 L159.081 1027.96 Z" fill="#000000" fill-rule="nonzero" fill-opacity="1" /><path clip-path="url(#clip570)" d="M184.15 1002.36 Q180.539 1002.36 178.71 1005.92 Q176.905 1009.46 176.905 1016.59 Q176.905 1023.7 178.71 1027.26 Q180.539 1030.8 184.15 1030.8 Q187.784 1030.8 189.59 1027.26 Q191.418 1023.7 191.418 1016.59 Q191.418 1009.46 189.59 1005.92 Q187.784 1002.36 184.15 1002.36 M184.15 998.652 Q189.96 998.652 193.016 1003.26 Q196.094 1007.84 196.094 1016.59 Q196.094 1025.32 193.016 1029.93 Q189.96 1034.51 184.15 1034.51 Q178.34 1034.51 175.261 1029.93 Q172.206 1025.32 172.206 1016.59 Q172.206 1007.84 175.261 1003.26 Q178.34 998.652 184.15 998.652 Z" fill="#000000" fill-rule="nonzero" fill-opacity="1" /><path clip-path="url(#clip570)" d="M214.312 1002.36 Q210.701 1002.36 208.872 1005.92 Q207.067 1009.46 207.067 1016.59 Q207.067 1023.7 208.872 1027.26 Q210.701 1030.8 214.312 1030.8 Q217.946 1030.8 219.752 1027.26 Q221.58 1023.7 221.58 1016.59 Q221.58 1009.46 219.752 1005.92 Q217.946 1002.36 214.312 1002.36 M214.312 998.652 Q220.122 998.652 223.178 1003.26 Q226.256 1007.84 226.256 1016.59 Q226.256 1025.32 223.178 1029.93 Q220.122 1034.51 214.312 1034.51 Q208.502 1034.51 205.423 1029.93 Q202.367 1025.32 202.367 1016.59 Q202.367 1007.84 205.423 1003.26 Q208.502 998.652 214.312 998.652 Z" fill="#000000" fill-rule="nonzero" fill-opacity="1" /><path clip-path="url(#clip570)" d="M262.645 1008.37 L252.066 1019 L262.645 1029.58 L259.89 1032.38 L249.265 1021.75 L238.64 1032.38 L235.909 1029.58 L246.464 1019 L235.909 1008.37 L238.64 1005.57 L249.265 1016.2 L259.89 1005.57 L262.645 1008.37 Z" fill="#000000" fill-rule="nonzero" fill-opacity="1" /><path clip-path="url(#clip570)" d="M275.006 1029.9 L282.645 1029.9 L282.645 1003.54 L274.335 1005.2 L274.335 1000.94 L282.599 999.277 L287.274 999.277 L287.274 1029.9 L294.913 1029.9 L294.913 1033.84 L275.006 1033.84 L275.006 1029.9 Z" fill="#000000" fill-rule="nonzero" fill-opacity="1" /><path clip-path="url(#clip570)" d="M314.358 1002.36 Q310.747 1002.36 308.918 1005.92 Q307.112 1009.46 307.112 1016.59 Q307.112 1023.7 308.918 1027.26 Q310.747 1030.8 314.358 1030.8 Q317.992 1030.8 319.797 1027.26 Q321.626 1023.7 321.626 1016.59 Q321.626 1009.46 319.797 1005.92 Q317.992 1002.36 314.358 1002.36 M314.358 998.652 Q320.168 998.652 323.223 1003.26 Q326.302 1007.84 326.302 1016.59 Q326.302 1025.32 323.223 1029.93 Q320.168 1034.51 314.358 1034.51 Q308.547 1034.51 305.469 1029.93 Q302.413 1025.32 302.413 1016.59 Q302.413 1007.84 305.469 1003.26 Q308.547 998.652 314.358 998.652 Z" fill="#000000" fill-rule="nonzero" fill-opacity="1" /><path clip-path="url(#clip570)" d="M326.302 992.754 L350.414 992.754 L350.414 995.951 L326.302 995.951 L326.302 992.754 Z" fill="#000000" fill-rule="nonzero" fill-opacity="1" /><path clip-path="url(#clip570)" d="M358.651 978.347 L373.566 978.347 L373.566 981.544 L362.131 981.544 L362.131 988.428 Q362.958 988.146 363.786 988.014 Q364.613 987.863 365.441 987.863 Q370.143 987.863 372.889 990.44 Q375.635 993.017 375.635 997.418 Q375.635 1001.95 372.814 1004.47 Q369.992 1006.97 364.858 1006.97 Q363.09 1006.97 361.247 1006.67 Q359.422 1006.37 357.466 1005.77 L357.466 1001.95 Q359.159 1002.87 360.965 1003.32 Q362.77 1003.77 364.783 1003.77 Q368.036 1003.77 369.936 1002.06 Q371.836 1000.35 371.836 997.418 Q371.836 994.484 369.936 992.772 Q368.036 991.061 364.783 991.061 Q363.259 991.061 361.736 991.399 Q360.231 991.738 358.651 992.453 L358.651 978.347 Z" fill="#000000" fill-rule="nonzero" fill-opacity="1" /><path clip-path="url(#clip570)" d="M143.085 837.161 Q146.442 837.879 148.317 840.147 Q150.215 842.416 150.215 845.749 Q150.215 850.865 146.696 853.666 Q143.178 856.467 136.697 856.467 Q134.521 856.467 132.206 856.027 Q129.914 855.61 127.46 854.754 L127.46 850.24 Q129.405 851.374 131.72 851.953 Q134.034 852.531 136.558 852.531 Q140.956 852.531 143.247 850.795 Q145.562 849.059 145.562 845.749 Q145.562 842.694 143.409 840.981 Q141.28 839.244 137.46 839.244 L133.433 839.244 L133.433 835.402 L137.646 835.402 Q141.095 835.402 142.923 834.036 Q144.752 832.647 144.752 830.055 Q144.752 827.393 142.854 825.981 Q140.979 824.545 137.46 824.545 Q135.539 824.545 133.34 824.962 Q131.141 825.379 128.502 826.258 L128.502 822.092 Q131.164 821.351 133.479 820.981 Q135.817 820.61 137.877 820.61 Q143.201 820.61 146.303 823.041 Q149.405 825.448 149.405 829.569 Q149.405 832.439 147.761 834.43 Q146.118 836.397 143.085 837.161 Z" fill="#000000" fill-rule="nonzero" fill-opacity="1" /><path clip-path="url(#clip570)" d="M159.081 849.916 L163.965 849.916 L163.965 855.795 L159.081 855.795 L159.081 849.916 Z" fill="#000000" fill-rule="nonzero" fill-opacity="1" /><path clip-path="url(#clip570)" d="M174.196 821.235 L192.553 821.235 L192.553 825.17 L178.479 825.17 L178.479 833.643 Q179.497 833.295 180.516 833.133 Q181.534 832.948 182.553 832.948 Q188.34 832.948 191.719 836.12 Q195.099 839.291 195.099 844.707 Q195.099 850.286 191.627 853.388 Q188.155 856.467 181.835 856.467 Q179.659 856.467 177.391 856.096 Q175.145 855.726 172.738 854.985 L172.738 850.286 Q174.821 851.42 177.044 851.976 Q179.266 852.531 181.743 852.531 Q185.747 852.531 188.085 850.425 Q190.423 848.319 190.423 844.707 Q190.423 841.096 188.085 838.99 Q185.747 836.883 181.743 836.883 Q179.868 836.883 177.993 837.3 Q176.141 837.717 174.196 838.596 L174.196 821.235 Z" fill="#000000" fill-rule="nonzero" fill-opacity="1" /><path clip-path="url(#clip570)" d="M214.312 824.314 Q210.701 824.314 208.872 827.879 Q207.067 831.42 207.067 838.55 Q207.067 845.656 208.872 849.221 Q210.701 852.763 214.312 852.763 Q217.946 852.763 219.752 849.221 Q221.58 845.656 221.58 838.55 Q221.58 831.42 219.752 827.879 Q217.946 824.314 214.312 824.314 M214.312 820.61 Q220.122 820.61 223.178 825.217 Q226.256 829.8 226.256 838.55 Q226.256 847.277 223.178 851.883 Q220.122 856.467 214.312 856.467 Q208.502 856.467 205.423 851.883 Q202.367 847.277 202.367 838.55 Q202.367 829.8 205.423 825.217 Q208.502 820.61 214.312 820.61 Z" fill="#000000" fill-rule="nonzero" fill-opacity="1" /><path clip-path="url(#clip570)" d="M262.645 830.333 L252.066 840.957 L262.645 851.536 L259.89 854.337 L249.265 843.712 L238.64 854.337 L235.909 851.536 L246.464 840.957 L235.909 830.333 L238.64 827.532 L249.265 838.157 L259.89 827.532 L262.645 830.333 Z" fill="#000000" fill-rule="nonzero" fill-opacity="1" /><path clip-path="url(#clip570)" d="M275.006 851.86 L282.645 851.86 L282.645 825.495 L274.335 827.161 L274.335 822.902 L282.599 821.235 L287.274 821.235 L287.274 851.86 L294.913 851.86 L294.913 855.795 L275.006 855.795 L275.006 851.86 Z" fill="#000000" fill-rule="nonzero" fill-opacity="1" /><path clip-path="url(#clip570)" d="M314.358 824.314 Q310.747 824.314 308.918 827.879 Q307.112 831.42 307.112 838.55 Q307.112 845.656 308.918 849.221 Q310.747 852.763 314.358 852.763 Q317.992 852.763 319.797 849.221 Q321.626 845.656 321.626 838.55 Q321.626 831.42 319.797 827.879 Q317.992 824.314 314.358 824.314 M314.358 820.61 Q320.168 820.61 323.223 825.217 Q326.302 829.8 326.302 838.55 Q326.302 847.277 323.223 851.883 Q320.168 856.467 314.358 856.467 Q308.547 856.467 305.469 851.883 Q302.413 847.277 302.413 838.55 Q302.413 829.8 305.469 825.217 Q308.547 820.61 314.358 820.61 Z" fill="#000000" fill-rule="nonzero" fill-opacity="1" /><path clip-path="url(#clip570)" d="M326.302 814.712 L350.414 814.712 L350.414 817.909 L326.302 817.909 L326.302 814.712 Z" fill="#000000" fill-rule="nonzero" fill-opacity="1" /><path clip-path="url(#clip570)" d="M358.651 800.305 L373.566 800.305 L373.566 803.502 L362.131 803.502 L362.131 810.386 Q362.958 810.104 363.786 809.972 Q364.613 809.822 365.441 809.822 Q370.143 809.822 372.889 812.398 Q375.635 814.975 375.635 819.376 Q375.635 823.909 372.814 826.429 Q369.992 828.93 364.858 828.93 Q363.09 828.93 361.247 828.629 Q359.422 828.329 357.466 827.727 L357.466 823.909 Q359.159 824.83 360.965 825.282 Q362.77 825.733 364.783 825.733 Q368.036 825.733 369.936 824.022 Q371.836 822.31 371.836 819.376 Q371.836 816.442 369.936 814.73 Q368.036 813.019 364.783 813.019 Q363.259 813.019 361.736 813.358 Q360.231 813.696 358.651 814.411 L358.651 800.305 Z" fill="#000000" fill-rule="nonzero" fill-opacity="1" /><path clip-path="url(#clip570)" d="M141.766 647.268 L129.96 665.717 L141.766 665.717 L141.766 647.268 M140.539 643.194 L146.419 643.194 L146.419 665.717 L151.349 665.717 L151.349 669.605 L146.419 669.605 L146.419 677.754 L141.766 677.754 L141.766 669.605 L126.164 669.605 L126.164 665.092 L140.539 643.194 Z" fill="#000000" fill-rule="nonzero" fill-opacity="1" /><path clip-path="url(#clip570)" d="M159.081 671.874 L163.965 671.874 L163.965 677.754 L159.081 677.754 L159.081 671.874 Z" fill="#000000" fill-rule="nonzero" fill-opacity="1" /><path clip-path="url(#clip570)" d="M184.15 646.272 Q180.539 646.272 178.71 649.837 Q176.905 653.379 176.905 660.508 Q176.905 667.615 178.71 671.179 Q180.539 674.721 184.15 674.721 Q187.784 674.721 189.59 671.179 Q191.418 667.615 191.418 660.508 Q191.418 653.379 189.59 649.837 Q187.784 646.272 184.15 646.272 M184.15 642.569 Q189.96 642.569 193.016 647.175 Q196.094 651.758 196.094 660.508 Q196.094 669.235 193.016 673.841 Q189.96 678.425 184.15 678.425 Q178.34 678.425 175.261 673.841 Q172.206 669.235 172.206 660.508 Q172.206 651.758 175.261 647.175 Q178.34 642.569 184.15 642.569 Z" fill="#000000" fill-rule="nonzero" fill-opacity="1" /><path clip-path="url(#clip570)" d="M214.312 646.272 Q210.701 646.272 208.872 649.837 Q207.067 653.379 207.067 660.508 Q207.067 667.615 208.872 671.179 Q210.701 674.721 214.312 674.721 Q217.946 674.721 219.752 671.179 Q221.58 667.615 221.58 660.508 Q221.58 653.379 219.752 649.837 Q217.946 646.272 214.312 646.272 M214.312 642.569 Q220.122 642.569 223.178 647.175 Q226.256 651.758 226.256 660.508 Q226.256 669.235 223.178 673.841 Q220.122 678.425 214.312 678.425 Q208.502 678.425 205.423 673.841 Q202.367 669.235 202.367 660.508 Q202.367 651.758 205.423 647.175 Q208.502 642.569 214.312 642.569 Z" fill="#000000" fill-rule="nonzero" fill-opacity="1" /><path clip-path="url(#clip570)" d="M262.645 652.291 L252.066 662.916 L262.645 673.494 L259.89 676.295 L249.265 665.67 L238.64 676.295 L235.909 673.494 L246.464 662.916 L235.909 652.291 L238.64 649.49 L249.265 660.115 L259.89 649.49 L262.645 652.291 Z" fill="#000000" fill-rule="nonzero" fill-opacity="1" /><path clip-path="url(#clip570)" d="M275.006 673.818 L282.645 673.818 L282.645 647.453 L274.335 649.119 L274.335 644.86 L282.599 643.194 L287.274 643.194 L287.274 673.818 L294.913 673.818 L294.913 677.754 L275.006 677.754 L275.006 673.818 Z" fill="#000000" fill-rule="nonzero" fill-opacity="1" /><path clip-path="url(#clip570)" d="M314.358 646.272 Q310.747 646.272 308.918 649.837 Q307.112 653.379 307.112 660.508 Q307.112 667.615 308.918 671.179 Q310.747 674.721 314.358 674.721 Q317.992 674.721 319.797 671.179 Q321.626 667.615 321.626 660.508 Q321.626 653.379 319.797 649.837 Q317.992 646.272 314.358 646.272 M314.358 642.569 Q320.168 642.569 323.223 647.175 Q326.302 651.758 326.302 660.508 Q326.302 669.235 323.223 673.841 Q320.168 678.425 314.358 678.425 Q308.547 678.425 305.469 673.841 Q302.413 669.235 302.413 660.508 Q302.413 651.758 305.469 647.175 Q308.547 642.569 314.358 642.569 Z" fill="#000000" fill-rule="nonzero" fill-opacity="1" /><path clip-path="url(#clip570)" d="M326.302 636.67 L350.414 636.67 L350.414 639.867 L326.302 639.867 L326.302 636.67 Z" fill="#000000" fill-rule="nonzero" fill-opacity="1" /><path clip-path="url(#clip570)" d="M358.651 622.263 L373.566 622.263 L373.566 625.46 L362.131 625.46 L362.131 632.344 Q362.958 632.062 363.786 631.93 Q364.613 631.78 365.441 631.78 Q370.143 631.78 372.889 634.357 Q375.635 636.933 375.635 641.334 Q375.635 645.867 372.814 648.387 Q369.992 650.889 364.858 650.889 Q363.09 650.889 361.247 650.588 Q359.422 650.287 357.466 649.685 L357.466 645.867 Q359.159 646.788 360.965 647.24 Q362.77 647.691 364.783 647.691 Q368.036 647.691 369.936 645.98 Q371.836 644.268 371.836 641.334 Q371.836 638.4 369.936 636.689 Q368.036 634.977 364.783 634.977 Q363.259 634.977 361.736 635.316 Q360.231 635.654 358.651 636.369 L358.651 622.263 Z" fill="#000000" fill-rule="nonzero" fill-opacity="1" /><path clip-path="url(#clip570)" d="M141.766 469.226 L129.96 487.675 L141.766 487.675 L141.766 469.226 M140.539 465.152 L146.419 465.152 L146.419 487.675 L151.349 487.675 L151.349 491.564 L146.419 491.564 L146.419 499.712 L141.766 499.712 L141.766 491.564 L126.164 491.564 L126.164 487.05 L140.539 465.152 Z" fill="#000000" fill-rule="nonzero" fill-opacity="1" /><path clip-path="url(#clip570)" d="M159.081 493.832 L163.965 493.832 L163.965 499.712 L159.081 499.712 L159.081 493.832 Z" fill="#000000" fill-rule="nonzero" fill-opacity="1" /><path clip-path="url(#clip570)" d="M174.196 465.152 L192.553 465.152 L192.553 469.087 L178.479 469.087 L178.479 477.559 Q179.497 477.212 180.516 477.05 Q181.534 476.865 182.553 476.865 Q188.34 476.865 191.719 480.036 Q195.099 483.207 195.099 488.624 Q195.099 494.202 191.627 497.304 Q188.155 500.383 181.835 500.383 Q179.659 500.383 177.391 500.013 Q175.145 499.642 172.738 498.902 L172.738 494.202 Q174.821 495.337 177.044 495.892 Q179.266 496.448 181.743 496.448 Q185.747 496.448 188.085 494.341 Q190.423 492.235 190.423 488.624 Q190.423 485.013 188.085 482.906 Q185.747 480.8 181.743 480.8 Q179.868 480.8 177.993 481.216 Q176.141 481.633 174.196 482.513 L174.196 465.152 Z" fill="#000000" fill-rule="nonzero" fill-opacity="1" /><path clip-path="url(#clip570)" d="M214.312 468.23 Q210.701 468.23 208.872 471.795 Q207.067 475.337 207.067 482.466 Q207.067 489.573 208.872 493.138 Q210.701 496.679 214.312 496.679 Q217.946 496.679 219.752 493.138 Q221.58 489.573 221.58 482.466 Q221.58 475.337 219.752 471.795 Q217.946 468.23 214.312 468.23 M214.312 464.527 Q220.122 464.527 223.178 469.133 Q226.256 473.716 226.256 482.466 Q226.256 491.193 223.178 495.8 Q220.122 500.383 214.312 500.383 Q208.502 500.383 205.423 495.8 Q202.367 491.193 202.367 482.466 Q202.367 473.716 205.423 469.133 Q208.502 464.527 214.312 464.527 Z" fill="#000000" fill-rule="nonzero" fill-opacity="1" /><path clip-path="url(#clip570)" d="M262.645 474.249 L252.066 484.874 L262.645 495.452 L259.89 498.253 L249.265 487.628 L238.64 498.253 L235.909 495.452 L246.464 484.874 L235.909 474.249 L238.64 471.448 L249.265 482.073 L259.89 471.448 L262.645 474.249 Z" fill="#000000" fill-rule="nonzero" fill-opacity="1" /><path clip-path="url(#clip570)" d="M275.006 495.777 L282.645 495.777 L282.645 469.411 L274.335 471.078 L274.335 466.818 L282.599 465.152 L287.274 465.152 L287.274 495.777 L294.913 495.777 L294.913 499.712 L275.006 499.712 L275.006 495.777 Z" fill="#000000" fill-rule="nonzero" fill-opacity="1" /><path clip-path="url(#clip570)" d="M314.358 468.23 Q310.747 468.23 308.918 471.795 Q307.112 475.337 307.112 482.466 Q307.112 489.573 308.918 493.138 Q310.747 496.679 314.358 496.679 Q317.992 496.679 319.797 493.138 Q321.626 489.573 321.626 482.466 Q321.626 475.337 319.797 471.795 Q317.992 468.23 314.358 468.23 M314.358 464.527 Q320.168 464.527 323.223 469.133 Q326.302 473.716 326.302 482.466 Q326.302 491.193 323.223 495.8 Q320.168 500.383 314.358 500.383 Q308.547 500.383 305.469 495.8 Q302.413 491.193 302.413 482.466 Q302.413 473.716 305.469 469.133 Q308.547 464.527 314.358 464.527 Z" fill="#000000" fill-rule="nonzero" fill-opacity="1" /><path clip-path="url(#clip570)" d="M326.302 458.628 L350.414 458.628 L350.414 461.825 L326.302 461.825 L326.302 458.628 Z" fill="#000000" fill-rule="nonzero" fill-opacity="1" /><path clip-path="url(#clip570)" d="M358.651 444.221 L373.566 444.221 L373.566 447.419 L362.131 447.419 L362.131 454.302 Q362.958 454.02 363.786 453.888 Q364.613 453.738 365.441 453.738 Q370.143 453.738 372.889 456.315 Q375.635 458.891 375.635 463.292 Q375.635 467.825 372.814 470.345 Q369.992 472.847 364.858 472.847 Q363.09 472.847 361.247 472.546 Q359.422 472.245 357.466 471.643 L357.466 467.825 Q359.159 468.747 360.965 469.198 Q362.77 469.649 364.783 469.649 Q368.036 469.649 369.936 467.938 Q371.836 466.226 371.836 463.292 Q371.836 460.358 369.936 458.647 Q368.036 456.935 364.783 456.935 Q363.259 456.935 361.736 457.274 Q360.231 457.612 358.651 458.327 L358.651 444.221 Z" fill="#000000" fill-rule="nonzero" fill-opacity="1" /><path clip-path="url(#clip570)" d="M128.965 287.11 L147.321 287.11 L147.321 291.045 L133.247 291.045 L133.247 299.517 Q134.266 299.17 135.284 299.008 Q136.303 298.823 137.322 298.823 Q143.109 298.823 146.488 301.994 Q149.868 305.165 149.868 310.582 Q149.868 316.161 146.396 319.262 Q142.923 322.341 136.604 322.341 Q134.428 322.341 132.159 321.971 Q129.914 321.6 127.507 320.86 L127.507 316.161 Q129.59 317.295 131.812 317.85 Q134.034 318.406 136.511 318.406 Q140.516 318.406 142.854 316.3 Q145.192 314.193 145.192 310.582 Q145.192 306.971 142.854 304.864 Q140.516 302.758 136.511 302.758 Q134.636 302.758 132.761 303.175 Q130.91 303.591 128.965 304.471 L128.965 287.11 Z" fill="#000000" fill-rule="nonzero" fill-opacity="1" /><path clip-path="url(#clip570)" d="M159.081 315.79 L163.965 315.79 L163.965 321.67 L159.081 321.67 L159.081 315.79 Z" fill="#000000" fill-rule="nonzero" fill-opacity="1" /><path clip-path="url(#clip570)" d="M184.15 290.189 Q180.539 290.189 178.71 293.753 Q176.905 297.295 176.905 304.425 Q176.905 311.531 178.71 315.096 Q180.539 318.637 184.15 318.637 Q187.784 318.637 189.59 315.096 Q191.418 311.531 191.418 304.425 Q191.418 297.295 189.59 293.753 Q187.784 290.189 184.15 290.189 M184.15 286.485 Q189.96 286.485 193.016 291.091 Q196.094 295.675 196.094 304.425 Q196.094 313.151 193.016 317.758 Q189.96 322.341 184.15 322.341 Q178.34 322.341 175.261 317.758 Q172.206 313.151 172.206 304.425 Q172.206 295.675 175.261 291.091 Q178.34 286.485 184.15 286.485 Z" fill="#000000" fill-rule="nonzero" fill-opacity="1" /><path clip-path="url(#clip570)" d="M214.312 290.189 Q210.701 290.189 208.872 293.753 Q207.067 297.295 207.067 304.425 Q207.067 311.531 208.872 315.096 Q210.701 318.637 214.312 318.637 Q217.946 318.637 219.752 315.096 Q221.58 311.531 221.58 304.425 Q221.58 297.295 219.752 293.753 Q217.946 290.189 214.312 290.189 M214.312 286.485 Q220.122 286.485 223.178 291.091 Q226.256 295.675 226.256 304.425 Q226.256 313.151 223.178 317.758 Q220.122 322.341 214.312 322.341 Q208.502 322.341 205.423 317.758 Q202.367 313.151 202.367 304.425 Q202.367 295.675 205.423 291.091 Q208.502 286.485 214.312 286.485 Z" fill="#000000" fill-rule="nonzero" fill-opacity="1" /><path clip-path="url(#clip570)" d="M262.645 296.207 L252.066 306.832 L262.645 317.411 L259.89 320.212 L249.265 309.587 L238.64 320.212 L235.909 317.411 L246.464 306.832 L235.909 296.207 L238.64 293.406 L249.265 304.031 L259.89 293.406 L262.645 296.207 Z" fill="#000000" fill-rule="nonzero" fill-opacity="1" /><path clip-path="url(#clip570)" d="M275.006 317.735 L282.645 317.735 L282.645 291.369 L274.335 293.036 L274.335 288.777 L282.599 287.11 L287.274 287.11 L287.274 317.735 L294.913 317.735 L294.913 321.67 L275.006 321.67 L275.006 317.735 Z" fill="#000000" fill-rule="nonzero" fill-opacity="1" /><path clip-path="url(#clip570)" d="M314.358 290.189 Q310.747 290.189 308.918 293.753 Q307.112 297.295 307.112 304.425 Q307.112 311.531 308.918 315.096 Q310.747 318.637 314.358 318.637 Q317.992 318.637 319.797 315.096 Q321.626 311.531 321.626 304.425 Q321.626 297.295 319.797 293.753 Q317.992 290.189 314.358 290.189 M314.358 286.485 Q320.168 286.485 323.223 291.091 Q326.302 295.675 326.302 304.425 Q326.302 313.151 323.223 317.758 Q320.168 322.341 314.358 322.341 Q308.547 322.341 305.469 317.758 Q302.413 313.151 302.413 304.425 Q302.413 295.675 305.469 291.091 Q308.547 286.485 314.358 286.485 Z" fill="#000000" fill-rule="nonzero" fill-opacity="1" /><path clip-path="url(#clip570)" d="M326.302 280.586 L350.414 280.586 L350.414 283.784 L326.302 283.784 L326.302 280.586 Z" fill="#000000" fill-rule="nonzero" fill-opacity="1" /><path clip-path="url(#clip570)" d="M358.651 266.179 L373.566 266.179 L373.566 269.377 L362.131 269.377 L362.131 276.26 Q362.958 275.978 363.786 275.847 Q364.613 275.696 365.441 275.696 Q370.143 275.696 372.889 278.273 Q375.635 280.85 375.635 285.251 Q375.635 289.783 372.814 292.303 Q369.992 294.805 364.858 294.805 Q363.09 294.805 361.247 294.504 Q359.422 294.203 357.466 293.601 L357.466 289.783 Q359.159 290.705 360.965 291.156 Q362.77 291.608 364.783 291.608 Q368.036 291.608 369.936 289.896 Q371.836 288.185 371.836 285.251 Q371.836 282.317 369.936 280.605 Q368.036 278.894 364.783 278.894 Q363.259 278.894 361.736 279.232 Q360.231 279.571 358.651 280.285 L358.651 266.179 Z" fill="#000000" fill-rule="nonzero" fill-opacity="1" /><path clip-path="url(#clip570)" d="M60.4144 1131.09 L77.8246 1131.09 L77.8246 1120.78 Q77.8246 1115.59 75.6921 1113.11 Q73.5278 1110.59 69.1036 1110.59 Q64.6476 1110.59 62.5469 1113.11 Q60.4144 1115.59 60.4144 1120.78 L60.4144 1131.09 M40.8717 1131.09 L55.1945 1131.09 L55.1945 1121.57 Q55.1945 1116.86 53.444 1114.57 Q51.6616 1112.25 48.0331 1112.25 Q44.4365 1112.25 42.6541 1114.57 Q40.8717 1116.86 40.8717 1121.57 L40.8717 1131.09 M35.5882 1137.52 L35.5882 1121.09 Q35.5882 1113.74 38.6437 1109.76 Q41.6992 1105.78 47.3329 1105.78 Q51.6934 1105.78 54.2715 1107.82 Q56.8496 1109.86 57.4862 1113.81 Q58.5047 1109.06 61.7512 1106.45 Q64.9659 1103.81 69.8038 1103.81 Q76.1695 1103.81 79.6388 1108.14 Q83.1082 1112.47 83.1082 1120.46 L83.1082 1137.52 L35.5882 1137.52 Z" fill="#000000" fill-rule="nonzero" fill-opacity="1" /><path clip-path="url(#clip570)" d="M77.761 1087.39 L96.6671 1087.39 L96.6671 1093.28 L47.4602 1093.28 L47.4602 1087.39 L52.8711 1087.39 Q49.6882 1085.54 48.1604 1082.74 Q46.6008 1079.91 46.6008 1075.99 Q46.6008 1069.5 51.7571 1065.46 Q56.9133 1061.38 65.316 1061.38 Q73.7187 1061.38 78.875 1065.46 Q84.0312 1069.5 84.0312 1075.99 Q84.0312 1079.91 82.5034 1082.74 Q80.9438 1085.54 77.761 1087.39 M65.316 1067.46 Q58.8548 1067.46 55.1945 1070.14 Q51.5024 1072.78 51.5024 1077.43 Q51.5024 1082.07 55.1945 1084.75 Q58.8548 1087.39 65.316 1087.39 Q71.7772 1087.39 75.4693 1084.75 Q79.1296 1082.07 79.1296 1077.43 Q79.1296 1072.78 75.4693 1070.14 Q71.7772 1067.46 65.316 1067.46 Z" fill="#000000" fill-rule="nonzero" fill-opacity="1" /><path clip-path="url(#clip570)" d="M63.8201 1021.18 L66.6846 1021.18 L66.6846 1048.11 Q72.7321 1047.73 75.9149 1044.48 Q79.0659 1041.2 79.0659 1035.38 Q79.0659 1032.01 78.2384 1028.86 Q77.4109 1025.67 75.7558 1022.55 L81.2939 1022.55 Q82.6307 1025.7 83.331 1029.01 Q84.0312 1032.32 84.0312 1035.73 Q84.0312 1044.26 79.0659 1049.26 Q74.1007 1054.22 65.6343 1054.22 Q56.8814 1054.22 51.7571 1049.51 Q46.6008 1044.77 46.6008 1036.75 Q46.6008 1029.56 51.2478 1025.39 Q55.8629 1021.18 63.8201 1021.18 M62.1013 1027.04 Q57.2952 1027.1 54.4306 1029.75 Q51.5661 1032.36 51.5661 1036.68 Q51.5661 1041.59 54.3352 1044.55 Q57.1042 1047.47 62.1332 1047.92 L62.1013 1027.04 Z" fill="#000000" fill-rule="nonzero" fill-opacity="1" /><path clip-path="url(#clip570)" d="M47.4602 1011.79 L47.4602 1003.23 L71.3316 993.112 L47.4602 982.958 L47.4602 974.46 L83.1082 974.46 L83.1082 980.348 L53.062 980.348 L76.265 990.183 L76.265 996.04 L53.062 1005.91 L83.1082 1005.91 L83.1082 1011.79 L47.4602 1011.79 Z" fill="#000000" fill-rule="nonzero" fill-opacity="1" /><path clip-path="url(#clip570)" d="M57.7408 956.509 Q60.3826 956.509 61.8785 954.472 Q63.3745 952.435 63.3745 948.647 L63.3745 940.754 L52.139 940.754 L52.139 948.647 Q52.139 952.435 53.6031 954.472 Q55.0672 956.509 57.7408 956.509 M83.1082 964.848 L67.4803 953.963 Q66.6528 957.655 64.4885 960.105 Q62.2923 962.556 57.7408 962.556 Q52.5846 962.556 50.0383 959.151 Q47.4602 955.713 47.4602 948.806 L47.4602 934.865 L83.1082 934.865 L83.1082 940.754 L68.0533 940.754 L68.0533 948.042 L83.1082 958.546 L83.1082 964.848 Z" fill="#000000" fill-rule="nonzero" fill-opacity="1" /><path clip-path="url(#clip570)" d="M66.6846 896.83 L78.4294 896.83 L78.4294 888.491 Q78.4294 884.481 76.9334 882.38 Q75.4057 880.28 72.5411 880.28 Q69.6765 880.28 68.1806 882.38 Q66.6846 884.481 66.6846 888.491 L66.6846 896.83 M52.139 896.83 L62.0058 896.83 L62.0058 889.128 Q62.0058 885.818 60.7009 883.717 Q59.3641 881.616 57.0088 881.616 Q54.6534 881.616 53.4121 883.717 Q52.139 885.818 52.139 889.128 L52.139 896.83 M47.4602 902.687 L47.4602 888.746 Q47.4602 882.476 49.7519 879.102 Q52.0435 875.728 56.2767 875.728 Q59.555 875.728 61.4966 877.447 Q63.4063 879.166 63.8837 882.539 Q64.6476 878.497 67.0666 876.269 Q69.4855 874.041 73.114 874.041 Q77.8883 874.041 80.4982 877.733 Q83.1082 881.393 83.1082 888.205 L83.1082 902.687 L47.4602 902.687 Z" fill="#000000" fill-rule="nonzero" fill-opacity="1" /><path clip-path="url(#clip570)" d="M47.4602 830.372 L47.4602 824.516 L83.1082 824.516 L83.1082 830.372 L47.4602 830.372 M46.6008 827.444 L46.6008 827.444 M72.5411 841.862 Q69.6765 841.862 68.1806 843.963 Q66.6846 846.032 66.6846 850.042 L66.6846 858.381 L78.4294 858.381 L78.4294 850.042 Q78.4294 846.032 76.9334 843.963 Q75.4057 841.862 72.5411 841.862 M47.4602 864.27 L47.4602 858.381 L62.0058 858.381 L62.0058 849.788 Q62.0058 842.976 64.6158 839.316 Q67.1939 835.624 72.5411 835.624 Q77.8883 835.624 80.4982 839.316 Q83.1082 842.976 83.1082 849.788 L83.1082 864.27 L47.4602 864.27 Z" fill="#000000" fill-rule="nonzero" fill-opacity="1" /><path clip-path="url(#clip570)" d="M83.1082 791.987 L68.1169 791.987 L68.1169 802.904 Q68.1169 807.774 65.0932 811.021 Q62.356 813.949 56.4995 813.949 L47.4602 813.949 L47.4602 808.092 L55.9584 808.092 Q59.6824 808.092 61.5602 806.437 Q63.4381 804.75 63.4381 801.44 L63.4381 791.987 L47.4602 791.987 L47.4602 786.131 L83.1082 786.131 L83.1082 791.987 Z" fill="#000000" fill-rule="nonzero" fill-opacity="1" /><path clip-path="url(#clip570)" d="M47.4602 743.767 L83.1082 743.767 L83.1082 749.592 L54.4943 749.592 L83.1082 766.779 L83.1082 774.29 L47.4602 774.29 L47.4602 768.466 L76.0104 768.466 L47.4602 751.31 L47.4602 743.767 Z" fill="#000000" fill-rule="nonzero" fill-opacity="1" /><path clip-path="url(#clip570)" d="M48.8288 706.05 L54.3033 706.05 Q52.9347 708.533 52.2663 711.047 Q51.5661 713.53 51.5661 716.076 Q51.5661 721.773 55.1945 724.924 Q58.7912 728.075 65.316 728.075 Q71.8409 728.075 75.4693 724.924 Q79.0659 721.773 79.0659 716.076 Q79.0659 713.53 78.3975 711.047 Q77.6973 708.533 76.3287 706.05 L81.7395 706.05 Q82.8854 708.501 83.4583 711.143 Q84.0312 713.753 84.0312 716.713 Q84.0312 724.765 78.9704 729.508 Q73.9097 734.25 65.316 734.25 Q56.595 734.25 51.5979 729.476 Q46.6008 724.67 46.6008 716.331 Q46.6008 713.625 47.1737 711.047 Q47.7148 708.469 48.8288 706.05 Z" fill="#000000" fill-rule="nonzero" fill-opacity="1" /><path clip-path="url(#clip570)" d="M83.1082 699.589 L78.2384 699.589 Q77.3472 693.796 73.3368 692.014 Q67.7031 689.849 53.2848 689.849 L47.4602 689.849 L47.4602 665.755 L83.1082 665.755 L83.1082 671.612 L52.139 671.612 L52.139 683.993 L55.672 683.993 Q69.4219 683.993 75.5966 686.794 Q82.1851 689.786 83.1082 699.589 Z" fill="#000000" fill-rule="nonzero" fill-opacity="1" /><path clip-path="url(#clip570)" d="M63.8201 623.71 L66.6846 623.71 L66.6846 650.637 Q72.7321 650.255 75.9149 647.008 Q79.0659 643.73 79.0659 637.905 Q79.0659 634.531 78.2384 631.38 Q77.4109 628.198 75.7558 625.078 L81.2939 625.078 Q82.6307 628.229 83.331 631.54 Q84.0312 634.85 84.0312 638.255 Q84.0312 646.785 79.0659 651.782 Q74.1007 656.748 65.6343 656.748 Q56.8814 656.748 51.7571 652.037 Q46.6008 647.295 46.6008 639.274 Q46.6008 632.081 51.2478 627.911 Q55.8629 623.71 63.8201 623.71 M62.1013 629.566 Q57.2952 629.63 54.4306 632.272 Q51.5661 634.882 51.5661 639.21 Q51.5661 644.112 54.3352 647.072 Q57.1042 650 62.1332 650.446 L62.1013 629.566 Z" fill="#000000" fill-rule="nonzero" fill-opacity="1" /><path clip-path="url(#clip570)" d="M47.4602 614.32 L47.4602 608.432 L62.0058 608.432 L62.0058 589.43 L47.4602 589.43 L47.4602 583.542 L83.1082 583.542 L83.1082 589.43 L66.6846 589.43 L66.6846 608.432 L83.1082 608.432 L83.1082 614.32 L47.4602 614.32 Z" fill="#000000" fill-rule="nonzero" fill-opacity="1" /><path clip-path="url(#clip570)" d="M47.4602 541.178 L83.1082 541.178 L83.1082 547.003 L54.4943 547.003 L83.1082 564.19 L83.1082 571.702 L47.4602 571.702 L47.4602 565.877 L76.0104 565.877 L47.4602 548.722 L47.4602 541.178 Z" fill="#000000" fill-rule="nonzero" fill-opacity="1" /><path clip-path="url(#clip570)" d="M57.7408 523.227 Q60.3826 523.227 61.8785 521.19 Q63.3745 519.153 63.3745 515.365 L63.3745 507.472 L52.139 507.472 L52.139 515.365 Q52.139 519.153 53.6031 521.19 Q55.0672 523.227 57.7408 523.227 M83.1082 531.566 L67.4803 520.681 Q66.6528 524.373 64.4885 526.824 Q62.2923 529.274 57.7408 529.274 Q52.5846 529.274 50.0383 525.869 Q47.4602 522.431 47.4602 515.525 L47.4602 501.584 L83.1082 501.584 L83.1082 507.472 L68.0533 507.472 L68.0533 514.761 L83.1082 525.264 L83.1082 531.566 Z" fill="#000000" fill-rule="nonzero" fill-opacity="1" /><path clip-path="url(#clip570)" d="M75.0237 488.407 L75.0237 481.691 L80.4982 481.691 L90.6833 486.911 L90.6833 491.017 L80.4982 488.407 L75.0237 488.407 Z" fill="#000000" fill-rule="nonzero" fill-opacity="1" /><path clip-path="url(#clip570)" d="M48.8288 422.808 L54.3033 422.808 Q52.9347 425.291 52.2663 427.805 Q51.5661 430.288 51.5661 432.834 Q51.5661 438.531 55.1945 441.682 Q58.7912 444.833 65.316 444.833 Q71.8409 444.833 75.4693 441.682 Q79.0659 438.531 79.0659 432.834 Q79.0659 430.288 78.3975 427.805 Q77.6973 425.291 76.3287 422.808 L81.7395 422.808 Q82.8854 425.259 83.4583 427.901 Q84.0312 430.51 84.0312 433.471 Q84.0312 441.523 78.9704 446.266 Q73.9097 451.008 65.316 451.008 Q56.595 451.008 51.5979 446.234 Q46.6008 441.428 46.6008 433.089 Q46.6008 430.383 47.1737 427.805 Q47.7148 425.227 48.8288 422.808 Z" fill="#000000" fill-rule="nonzero" fill-opacity="1" /><path clip-path="url(#clip570)" d="M63.8201 382.131 L66.6846 382.131 L66.6846 409.058 Q72.7321 408.676 75.9149 405.43 Q79.0659 402.151 79.0659 396.327 Q79.0659 392.953 78.2384 389.802 Q77.4109 386.619 75.7558 383.5 L81.2939 383.5 Q82.6307 386.651 83.331 389.961 Q84.0312 393.271 84.0312 396.677 Q84.0312 405.207 79.0659 410.204 Q74.1007 415.169 65.6343 415.169 Q56.8814 415.169 51.7571 410.459 Q46.6008 405.716 46.6008 397.695 Q46.6008 390.502 51.2478 386.332 Q55.8629 382.131 63.8201 382.131 M62.1013 387.988 Q57.2952 388.051 54.4306 390.693 Q51.5661 393.303 51.5661 397.632 Q51.5661 402.533 54.3352 405.493 Q57.1042 408.421 62.1332 408.867 L62.1013 387.988 Z" fill="#000000" fill-rule="nonzero" fill-opacity="1" /><path clip-path="url(#clip570)" d="M47.4602 372.742 L47.4602 366.917 L64.202 366.917 L47.4602 350.398 L47.4602 343.205 L61.242 356.827 L83.1082 341.454 L83.1082 348.011 L65.125 360.647 L71.4907 366.917 L83.1082 366.917 L83.1082 372.742 L47.4602 372.742 Z" fill="#000000" fill-rule="nonzero" fill-opacity="1" /><path clip-path="url(#clip570)" d="M300.909 11.0023 Q310.874 11.0023 317.193 15.2557 Q323.513 19.4686 323.513 26.6793 Q323.513 31.7024 320.637 35.1862 Q317.761 38.6294 312.454 39.9662 Q318.328 41.222 321.609 45.1919 Q324.931 49.1618 324.931 54.9951 Q324.931 64.3122 317.72 69.0517 Q310.55 73.7508 300.909 73.7508 Q295.967 73.7508 290.214 72.414 Q284.462 71.0772 282.68 69.9429 L282.68 61.517 Q288.878 65.1223 292.28 66.0135 Q295.724 66.8642 300.747 66.8642 Q308.363 66.8642 312.575 63.9476 Q316.788 61.0309 316.788 54.9951 Q316.788 49.6479 313.021 46.6502 Q309.294 43.612 301.395 43.612 L293.131 43.612 L293.131 36.8875 L301.719 36.8875 Q308.97 36.8875 312.17 34.4975 Q315.371 32.067 315.371 27.5299 Q315.371 22.8714 312.049 20.4004 Q308.768 17.8888 300.747 17.8888 Q295.319 17.8888 293.455 18.3749 Q291.592 18.861 283.287 21.9802 L283.287 13.9999 Q287.865 12.3796 292.645 11.6909 Q297.425 11.0023 300.909 11.0023 Z" fill="#000000" fill-rule="nonzero" fill-opacity="1" /><path clip-path="url(#clip570)" d="M358.837 49.7694 Q349.803 49.7694 346.319 51.8354 Q342.836 53.9013 342.836 58.8839 Q342.836 62.8538 345.428 65.2034 Q348.061 67.5124 352.558 67.5124 Q358.756 67.5124 362.483 63.1374 Q366.25 58.7219 366.25 51.4303 L366.25 49.7694 L358.837 49.7694 M373.704 46.6907 L373.704 72.576 L366.25 72.576 L366.25 65.6895 Q363.698 69.8214 359.89 71.8063 Q356.082 73.7508 350.573 73.7508 Q343.605 73.7508 339.473 69.8619 Q335.382 65.9325 335.382 59.3701 Q335.382 51.7138 340.486 47.825 Q345.631 43.9361 355.799 43.9361 L366.25 43.9361 L366.25 43.2069 Q366.25 38.0623 362.847 35.2672 Q359.485 32.4315 353.368 32.4315 Q349.479 32.4315 345.793 33.3632 Q342.107 34.295 338.704 36.1584 L338.704 29.2718 Q342.795 27.692 346.644 26.9223 Q350.492 26.1121 354.138 26.1121 Q363.981 26.1121 368.843 31.2163 Q373.704 36.3204 373.704 46.6907 Z" fill="#000000" fill-rule="nonzero" fill-opacity="1" /><path clip-path="url(#clip570)" d="M396.227 51.6733 L396.227 66.6212 L406.84 66.6212 Q411.944 66.6212 414.618 64.7172 Q417.291 62.7728 417.291 59.127 Q417.291 55.4812 414.618 53.5773 Q411.944 51.6733 406.84 51.6733 L396.227 51.6733 M396.227 33.1607 L396.227 45.7185 L406.03 45.7185 Q410.243 45.7185 412.916 44.0576 Q415.59 42.3563 415.59 39.3586 Q415.59 36.3609 412.916 34.7811 Q410.243 33.1607 406.03 33.1607 L396.227 33.1607 M388.773 27.2059 L406.516 27.2059 Q414.496 27.2059 418.79 30.1225 Q423.084 33.0392 423.084 38.4269 Q423.084 42.5993 420.897 45.0704 Q418.709 47.5009 414.415 48.1085 Q419.56 49.0808 422.395 52.1594 Q425.231 55.2381 425.231 59.8562 Q425.231 65.9325 420.532 69.2543 Q415.874 72.576 407.205 72.576 L388.773 72.576 L388.773 27.2059 Z" fill="#000000" fill-rule="nonzero" fill-opacity="1" /><path clip-path="url(#clip570)" d="M476.516 27.2059 L476.516 72.576 L469.102 72.576 L469.102 36.1584 L447.228 72.576 L437.667 72.576 L437.667 27.2059 L445.081 27.2059 L445.081 63.5425 L466.915 27.2059 L476.516 27.2059 Z" fill="#000000" fill-rule="nonzero" fill-opacity="1" /><path clip-path="url(#clip570)" d="M524.519 28.9478 L524.519 35.9153 Q521.359 34.1734 518.159 33.3227 Q514.999 32.4315 511.758 32.4315 Q504.507 32.4315 500.497 37.0496 Q496.487 41.6271 496.487 49.9314 Q496.487 58.2358 500.497 62.8538 Q504.507 67.4314 511.758 67.4314 Q514.999 67.4314 518.159 66.5807 Q521.359 65.6895 524.519 63.9476 L524.519 70.8341 Q521.4 72.2924 518.037 73.0216 Q514.716 73.7508 510.948 73.7508 Q500.699 73.7508 494.664 67.3098 Q488.628 60.8689 488.628 49.9314 Q488.628 38.832 494.704 32.472 Q500.821 26.1121 511.434 26.1121 Q514.878 26.1121 518.159 26.8413 Q521.44 27.5299 524.519 28.9478 Z" fill="#000000" fill-rule="nonzero" fill-opacity="1" /><path clip-path="url(#clip570)" d="M576.046 27.2059 L576.046 72.576 L568.633 72.576 L568.633 36.1584 L546.758 72.576 L537.198 72.576 L537.198 27.2059 L544.611 27.2059 L544.611 63.5425 L566.446 27.2059 L576.046 27.2059 Z" fill="#000000" fill-rule="nonzero" fill-opacity="1" /><path clip-path="url(#clip570)" d="M591.116 27.2059 L602.013 27.2059 L614.894 57.5877 L627.817 27.2059 L638.633 27.2059 L638.633 72.576 L631.139 72.576 L631.139 34.3355 L618.621 63.8666 L611.168 63.8666 L598.61 34.3355 L598.61 72.576 L591.116 72.576 L591.116 27.2059 Z" fill="#000000" fill-rule="nonzero" fill-opacity="1" /><path clip-path="url(#clip570)" d="M671.567 32.4315 Q665.571 32.4315 662.087 37.1306 Q658.604 41.7891 658.604 49.9314 Q658.604 58.0738 662.047 62.7728 Q665.531 67.4314 671.567 67.4314 Q677.521 67.4314 681.005 62.7323 Q684.489 58.0333 684.489 49.9314 Q684.489 41.8701 681.005 37.1711 Q677.521 32.4315 671.567 32.4315 M671.567 26.1121 Q681.289 26.1121 686.838 32.4315 Q692.388 38.7509 692.388 49.9314 Q692.388 61.0714 686.838 67.4314 Q681.289 73.7508 671.567 73.7508 Q661.804 73.7508 656.254 67.4314 Q650.745 61.0714 650.745 49.9314 Q650.745 38.7509 656.254 32.4315 Q661.804 26.1121 671.567 26.1121 Z" fill="#000000" fill-rule="nonzero" fill-opacity="1" /><path clip-path="url(#clip570)" d="M737.394 28.9478 L737.394 35.9153 Q734.234 34.1734 731.034 33.3227 Q727.874 32.4315 724.633 32.4315 Q717.382 32.4315 713.372 37.0496 Q709.362 41.6271 709.362 49.9314 Q709.362 58.2358 713.372 62.8538 Q717.382 67.4314 724.633 67.4314 Q727.874 67.4314 731.034 66.5807 Q734.234 65.6895 737.394 63.9476 L737.394 70.8341 Q734.275 72.2924 730.912 73.0216 Q727.591 73.7508 723.823 73.7508 Q713.574 73.7508 707.539 67.3098 Q701.503 60.8689 701.503 49.9314 Q701.503 38.832 707.579 32.472 Q713.696 26.1121 724.309 26.1121 Q727.753 26.1121 731.034 26.8413 Q734.315 27.5299 737.394 28.9478 Z" fill="#000000" fill-rule="nonzero" fill-opacity="1" /><path clip-path="url(#clip570)" d="M744.969 27.2059 L788.435 27.2059 L788.435 33.1607 L770.368 33.1607 L770.368 72.576 L763.036 72.576 L763.036 33.1607 L744.969 33.1607 L744.969 27.2059 Z" fill="#000000" fill-rule="nonzero" fill-opacity="1" /><path clip-path="url(#clip570)" d="M826.919 59.127 Q826.919 55.4812 824.245 53.5773 Q821.612 51.6733 816.508 51.6733 L805.895 51.6733 L805.895 66.6212 L816.508 66.6212 Q821.612 66.6212 824.245 64.7172 Q826.919 62.7728 826.919 59.127 M798.4 27.2059 L805.895 27.2059 L805.895 45.7185 L816.832 45.7185 Q825.501 45.7185 830.159 49.0402 Q834.859 52.3215 834.859 59.127 Q834.859 65.9325 830.159 69.2543 Q825.501 72.576 816.832 72.576 L798.4 72.576 L798.4 27.2059 Z" fill="#000000" fill-rule="nonzero" fill-opacity="1" /><path clip-path="url(#clip570)" d="M881.12 51.6733 L881.12 66.6212 L891.733 66.6212 Q896.837 66.6212 899.511 64.7172 Q902.185 62.7728 902.185 59.127 Q902.185 55.4812 899.511 53.5773 Q896.837 51.6733 891.733 51.6733 L881.12 51.6733 M881.12 33.1607 L881.12 45.7185 L890.923 45.7185 Q895.136 45.7185 897.81 44.0576 Q900.483 42.3563 900.483 39.3586 Q900.483 36.3609 897.81 34.7811 Q895.136 33.1607 890.923 33.1607 L881.12 33.1607 M873.666 27.2059 L891.409 27.2059 Q899.389 27.2059 903.683 30.1225 Q907.977 33.0392 907.977 38.4269 Q907.977 42.5993 905.79 45.0704 Q903.602 47.5009 899.308 48.1085 Q904.453 49.0808 907.289 52.1594 Q910.124 55.2381 910.124 59.8562 Q910.124 65.9325 905.425 69.2543 Q900.767 72.576 892.098 72.576 L873.666 72.576 L873.666 27.2059 Z" fill="#000000" fill-rule="nonzero" fill-opacity="1" /><path clip-path="url(#clip570)" d="M930.055 65.7705 L930.055 89.8329 L922.561 89.8329 L922.561 27.2059 L930.055 27.2059 L930.055 34.0924 Q932.404 30.0415 935.969 28.0971 Q939.574 26.1121 944.557 26.1121 Q952.821 26.1121 957.966 32.6746 Q963.151 39.2371 963.151 49.9314 Q963.151 60.6258 957.966 67.1883 Q952.821 73.7508 944.557 73.7508 Q939.574 73.7508 935.969 71.8063 Q932.404 69.8214 930.055 65.7705 M955.413 49.9314 Q955.413 41.7081 952.011 37.0496 Q948.648 32.3505 942.734 32.3505 Q936.82 32.3505 933.417 37.0496 Q930.055 41.7081 930.055 49.9314 Q930.055 58.1548 933.417 62.8538 Q936.82 67.5124 942.734 67.5124 Q948.648 67.5124 952.011 62.8538 Q955.413 58.1548 955.413 49.9314 Z" fill="#000000" fill-rule="nonzero" fill-opacity="1" /><path clip-path="url(#clip570)" d="M1014.31 48.0275 L1014.31 51.6733 L980.043 51.6733 Q980.529 59.3701 984.661 63.421 Q988.833 67.4314 996.247 67.4314 Q1000.54 67.4314 1004.55 66.3781 Q1008.6 65.3249 1012.57 63.2184 L1012.57 70.267 Q1008.56 71.9684 1004.35 72.8596 Q1000.14 73.7508 995.801 73.7508 Q984.945 73.7508 978.585 67.4314 Q972.265 61.1119 972.265 50.3365 Q972.265 39.1965 978.261 32.6746 Q984.296 26.1121 994.505 26.1121 Q1003.66 26.1121 1008.97 32.0264 Q1014.31 37.9003 1014.31 48.0275 M1006.86 45.84 Q1006.78 39.7232 1003.42 36.0774 Q1000.09 32.4315 994.586 32.4315 Q988.347 32.4315 984.58 35.9558 Q980.853 39.4801 980.286 45.8805 L1006.86 45.84 Z" fill="#000000" fill-rule="nonzero" fill-opacity="1" /><path clip-path="url(#clip570)" d="M1026.26 27.2059 L1037.16 27.2059 L1050.04 57.5877 L1062.96 27.2059 L1073.78 27.2059 L1073.78 72.576 L1066.29 72.576 L1066.29 34.3355 L1053.77 63.8666 L1046.32 63.8666 L1033.76 34.3355 L1033.76 72.576 L1026.26 72.576 L1026.26 27.2059 Z" fill="#000000" fill-rule="nonzero" fill-opacity="1" /><path clip-path="url(#clip570)" d="M1127.94 48.0275 L1127.94 51.6733 L1093.67 51.6733 Q1094.16 59.3701 1098.29 63.421 Q1102.46 67.4314 1109.87 67.4314 Q1114.17 67.4314 1118.18 66.3781 Q1122.23 65.3249 1126.2 63.2184 L1126.2 70.267 Q1122.19 71.9684 1117.98 72.8596 Q1113.76 73.7508 1109.43 73.7508 Q1098.57 73.7508 1092.21 67.4314 Q1085.89 61.1119 1085.89 50.3365 Q1085.89 39.1965 1091.89 32.6746 Q1097.92 26.1121 1108.13 26.1121 Q1117.29 26.1121 1122.59 32.0264 Q1127.94 37.9003 1127.94 48.0275 M1120.49 45.84 Q1120.41 39.7232 1117.04 36.0774 Q1113.72 32.4315 1108.21 32.4315 Q1101.98 32.4315 1098.21 35.9558 Q1094.48 39.4801 1093.91 45.8805 L1120.49 45.84 Z" fill="#000000" fill-rule="nonzero" fill-opacity="1" /><path clip-path="url(#clip570)" d="M1139.89 27.2059 L1147.39 27.2059 L1147.39 45.7185 L1171.57 45.7185 L1171.57 27.2059 L1179.06 27.2059 L1179.06 72.576 L1171.57 72.576 L1171.57 51.6733 L1147.39 51.6733 L1147.39 72.576 L1139.89 72.576 L1139.89 27.2059 Z" fill="#000000" fill-rule="nonzero" fill-opacity="1" /><path clip-path="url(#clip570)" d="M1232.98 27.2059 L1232.98 72.576 L1225.57 72.576 L1225.57 36.1584 L1203.69 72.576 L1194.13 72.576 L1194.13 27.2059 L1201.55 27.2059 L1201.55 63.5425 L1223.38 27.2059 L1232.98 27.2059 Z" fill="#000000" fill-rule="nonzero" fill-opacity="1" /><path clip-path="url(#clip570)" d="M1281.88 51.6733 L1281.88 66.6212 L1292.49 66.6212 Q1297.59 66.6212 1300.27 64.7172 Q1302.94 62.7728 1302.94 59.127 Q1302.94 55.4812 1300.27 53.5773 Q1297.59 51.6733 1292.49 51.6733 L1281.88 51.6733 M1281.88 33.1607 L1281.88 45.7185 L1291.68 45.7185 Q1295.89 45.7185 1298.57 44.0576 Q1301.24 42.3563 1301.24 39.3586 Q1301.24 36.3609 1298.57 34.7811 Q1295.89 33.1607 1291.68 33.1607 L1281.88 33.1607 M1274.42 27.2059 L1292.17 27.2059 Q1300.15 27.2059 1304.44 30.1225 Q1308.73 33.0392 1308.73 38.4269 Q1308.73 42.5993 1306.55 45.0704 Q1304.36 47.5009 1300.06 48.1085 Q1305.21 49.0808 1308.04 52.1594 Q1310.88 55.2381 1310.88 59.8562 Q1310.88 65.9325 1306.18 69.2543 Q1301.52 72.576 1292.85 72.576 L1274.42 72.576 L1274.42 27.2059 Z" fill="#000000" fill-rule="nonzero" fill-opacity="1" /><path clip-path="url(#clip570)" d="M1366.46 27.2059 L1373.91 27.2059 L1373.91 72.576 L1366.46 72.576 L1366.46 27.2059 M1370.19 26.1121 L1370.19 26.1121 M1351.83 59.127 Q1351.83 55.4812 1349.16 53.5773 Q1346.53 51.6733 1341.42 51.6733 L1330.81 51.6733 L1330.81 66.6212 L1341.42 66.6212 Q1346.53 66.6212 1349.16 64.7172 Q1351.83 62.7728 1351.83 59.127 M1323.32 27.2059 L1330.81 27.2059 L1330.81 45.7185 L1341.75 45.7185 Q1350.42 45.7185 1355.08 49.0402 Q1359.77 52.3215 1359.77 59.127 Q1359.77 65.9325 1355.08 69.2543 Q1350.42 72.576 1341.75 72.576 L1323.32 72.576 L1323.32 27.2059 Z" fill="#000000" fill-rule="nonzero" fill-opacity="1" /><path clip-path="url(#clip570)" d="M1415.31 72.576 L1415.31 53.4962 L1401.42 53.4962 Q1395.22 53.4962 1391.09 49.6479 Q1387.36 46.1641 1387.36 38.7104 L1387.36 27.2059 L1394.82 27.2059 L1394.82 38.0218 Q1394.82 42.7613 1396.92 45.1514 Q1399.07 47.5414 1403.28 47.5414 L1415.31 47.5414 L1415.31 27.2059 L1422.77 27.2059 L1422.77 72.576 L1415.31 72.576 Z" fill="#000000" fill-rule="nonzero" fill-opacity="1" /><path clip-path="url(#clip570)" d="M1476.68 27.2059 L1476.68 72.576 L1469.27 72.576 L1469.27 36.1584 L1447.4 72.576 L1437.84 72.576 L1437.84 27.2059 L1445.25 27.2059 L1445.25 63.5425 L1467.08 27.2059 L1476.68 27.2059 Z" fill="#000000" fill-rule="nonzero" fill-opacity="1" /><path clip-path="url(#clip570)" d="M1524.69 28.9478 L1524.69 35.9153 Q1521.53 34.1734 1518.33 33.3227 Q1515.17 32.4315 1511.93 32.4315 Q1504.68 32.4315 1500.67 37.0496 Q1496.65 41.6271 1496.65 49.9314 Q1496.65 58.2358 1500.67 62.8538 Q1504.68 67.4314 1511.93 67.4314 Q1515.17 67.4314 1518.33 66.5807 Q1521.53 65.6895 1524.69 63.9476 L1524.69 70.8341 Q1521.57 72.2924 1518.21 73.0216 Q1514.88 73.7508 1511.12 73.7508 Q1500.87 73.7508 1494.83 67.3098 Q1488.8 60.8689 1488.8 49.9314 Q1488.8 38.832 1494.87 32.472 Q1500.99 26.1121 1511.6 26.1121 Q1515.05 26.1121 1518.33 26.8413 Q1521.61 27.5299 1524.69 28.9478 Z" fill="#000000" fill-rule="nonzero" fill-opacity="1" /><path clip-path="url(#clip570)" d="M1532.91 72.576 L1532.91 66.3781 Q1540.28 65.2439 1542.55 60.1397 Q1545.31 52.9696 1545.31 34.619 L1545.31 27.2059 L1575.97 27.2059 L1575.97 72.576 L1568.52 72.576 L1568.52 33.1607 L1552.76 33.1607 L1552.76 37.6572 Q1552.76 55.1571 1549.19 63.0159 Q1545.39 71.4012 1532.91 72.576 Z" fill="#000000" fill-rule="nonzero" fill-opacity="1" /><path clip-path="url(#clip570)" d="M1629.48 48.0275 L1629.48 51.6733 L1595.21 51.6733 Q1595.7 59.3701 1599.83 63.421 Q1604 67.4314 1611.42 67.4314 Q1615.71 67.4314 1619.72 66.3781 Q1623.77 65.3249 1627.74 63.2184 L1627.74 70.267 Q1623.73 71.9684 1619.52 72.8596 Q1615.31 73.7508 1610.97 73.7508 Q1600.11 73.7508 1593.75 67.4314 Q1587.44 61.1119 1587.44 50.3365 Q1587.44 39.1965 1593.43 32.6746 Q1599.47 26.1121 1609.67 26.1121 Q1618.83 26.1121 1624.14 32.0264 Q1629.48 37.9003 1629.48 48.0275 M1622.03 45.84 Q1621.95 39.7232 1618.59 36.0774 Q1615.27 32.4315 1609.76 32.4315 Q1603.52 32.4315 1599.75 35.9558 Q1596.02 39.4801 1595.46 45.8805 L1622.03 45.84 Z" fill="#000000" fill-rule="nonzero" fill-opacity="1" /><path clip-path="url(#clip570)" d="M1641.43 27.2059 L1648.93 27.2059 L1648.93 45.7185 L1673.11 45.7185 L1673.11 27.2059 L1680.61 27.2059 L1680.61 72.576 L1673.11 72.576 L1673.11 51.6733 L1648.93 51.6733 L1648.93 72.576 L1641.43 72.576 L1641.43 27.2059 Z" fill="#000000" fill-rule="nonzero" fill-opacity="1" /><path clip-path="url(#clip570)" d="M1734.52 27.2059 L1734.52 72.576 L1727.11 72.576 L1727.11 36.1584 L1705.24 72.576 L1695.68 72.576 L1695.68 27.2059 L1703.09 27.2059 L1703.09 63.5425 L1724.92 27.2059 L1734.52 27.2059 Z" fill="#000000" fill-rule="nonzero" fill-opacity="1" /><path clip-path="url(#clip570)" d="M1757.37 40.2903 Q1757.37 43.6525 1759.96 45.5565 Q1762.56 47.4604 1767.38 47.4604 L1777.42 47.4604 L1777.42 33.1607 L1767.38 33.1607 Q1762.56 33.1607 1759.96 35.0241 Q1757.37 36.8875 1757.37 40.2903 M1746.76 72.576 L1760.61 52.6861 Q1755.91 51.6328 1752.79 48.8782 Q1749.67 46.0831 1749.67 40.2903 Q1749.67 33.7278 1754.01 30.4871 Q1758.38 27.2059 1767.17 27.2059 L1784.92 27.2059 L1784.92 72.576 L1777.42 72.576 L1777.42 53.4152 L1768.15 53.4152 L1754.78 72.576 L1746.76 72.576 Z" fill="#000000" fill-rule="nonzero" fill-opacity="1" /><path clip-path="url(#clip570)" d="M1843.74 32.4315 Q1837.74 32.4315 1834.26 37.1306 Q1830.77 41.7891 1830.77 49.9314 Q1830.77 58.0738 1834.22 62.7728 Q1837.7 67.4314 1843.74 67.4314 Q1849.69 67.4314 1853.17 62.7323 Q1856.66 58.0333 1856.66 49.9314 Q1856.66 41.8701 1853.17 37.1711 Q1849.69 32.4315 1843.74 32.4315 M1843.74 26.1121 Q1853.46 26.1121 1859.01 32.4315 Q1864.56 38.7509 1864.56 49.9314 Q1864.56 61.0714 1859.01 67.4314 Q1853.46 73.7508 1843.74 73.7508 Q1833.97 73.7508 1828.42 67.4314 Q1822.91 61.0714 1822.91 49.9314 Q1822.91 38.7509 1828.42 32.4315 Q1833.97 26.1121 1843.74 26.1121 Z" fill="#000000" fill-rule="nonzero" fill-opacity="1" /><path clip-path="url(#clip570)" d="M1871.53 27.2059 L1914.99 27.2059 L1914.99 33.1607 L1896.92 33.1607 L1896.92 72.576 L1889.59 72.576 L1889.59 33.1607 L1871.53 33.1607 L1871.53 27.2059 Z" fill="#000000" fill-rule="nonzero" fill-opacity="1" /><path clip-path="url(#clip570)" d="M1978.06 51.4708 L1976.28 42.1132 Q1974.46 32.5126 1967.25 32.5126 Q1961.82 32.5126 1959.35 36.9686 Q1956.23 42.5588 1956.23 49.9314 Q1956.23 58.8434 1959.27 63.0969 Q1962.35 67.4314 1967.25 67.4314 Q1972.68 67.4314 1975.59 58.8029 L1978.06 51.4708 M1982.24 39.075 L1986.25 27.2059 L1992.89 27.2059 L1984.59 51.7949 L1986.21 60.6663 Q1986.57 62.6513 1987.99 64.3122 Q1989.65 66.2566 1990.95 66.2566 L1994.51 66.2566 L1994.51 72.576 L1990.05 72.576 Q1986.25 72.576 1982.84 69.1732 Q1981.18 67.4719 1980.49 63.9071 Q1978.63 68.4036 1974.82 71.9279 Q1973.04 73.5887 1967.25 73.5887 Q1957.73 73.5887 1953.11 67.4314 Q1948.37 61.0714 1948.37 49.9314 Q1948.37 38.0218 1953.52 32.4315 Q1959.23 26.1931 1967.25 26.1931 Q1979.85 26.1931 1982.24 39.075 Z" fill="#000000" fill-rule="nonzero" fill-opacity="1" /><circle clip-path="url(#clip572)" cx="445.991" cy="1045.72" r="28.8" fill="#008000" fill-rule="evenodd" fill-opacity="1" stroke="#000000" stroke-opacity="1" stroke-width="3.072"/>
<circle clip-path="url(#clip572)" cx="753.815" cy="169.752" r="28.8" fill="#008000" fill-rule="evenodd" fill-opacity="1" stroke="#000000" stroke-opacity="1" stroke-width="3.072"/>
<circle clip-path="url(#clip572)" cx="1061.64" cy="1309.22" r="28.8" fill="#008000" fill-rule="evenodd" fill-opacity="1" stroke="#000000" stroke-opacity="1" stroke-width="3.072"/>
<circle clip-path="url(#clip572)" cx="1523.38" cy="1248.69" r="28.8" fill="#008000" fill-rule="evenodd" fill-opacity="1" stroke="#000000" stroke-opacity="1" stroke-width="3.072"/>
<circle clip-path="url(#clip572)" cx="1831.2" cy="1287.85" r="28.8" fill="#008000" fill-rule="evenodd" fill-opacity="1" stroke="#000000" stroke-opacity="1" stroke-width="3.072"/>
<path clip-path="url(#clip570)" d="M453.379 279.509 L1062.71 279.509 L1062.71 175.829 L453.379 175.829  Z" fill="#ffffff" fill-rule="evenodd" fill-opacity="1"/>
<polyline clip-path="url(#clip570)" style="stroke:#000000; stroke-linecap:round; stroke-linejoin:round; stroke-width:4; stroke-opacity:1; fill:none" points="453.379,279.509 1062.71,279.509 1062.71,175.829 453.379,175.829 453.379,279.509 "/>
<circle clip-path="url(#clip570)" cx="518.638" cy="227.669" r="21.6847" fill="#008000" fill-rule="evenodd" fill-opacity="1" stroke="#000000" stroke-opacity="1" stroke-width="2.31304"/>
<path clip-path="url(#clip570)" d="M588.572 228.445 L588.572 241.107 L596.072 241.107 Q599.845 241.107 601.651 239.556 Q603.479 237.982 603.479 234.764 Q603.479 231.523 601.651 229.996 Q599.845 228.445 596.072 228.445 L588.572 228.445 M588.572 214.232 L588.572 224.648 L595.493 224.648 Q598.919 224.648 600.586 223.375 Q602.276 222.079 602.276 219.44 Q602.276 216.824 600.586 215.528 Q598.919 214.232 595.493 214.232 L588.572 214.232 M583.896 210.389 L595.841 210.389 Q601.188 210.389 604.081 212.612 Q606.975 214.834 606.975 218.931 Q606.975 222.102 605.493 223.977 Q604.012 225.852 601.142 226.315 Q604.591 227.056 606.489 229.417 Q608.41 231.755 608.41 235.273 Q608.41 239.903 605.262 242.426 Q602.114 244.949 596.304 244.949 L583.896 244.949 L583.896 210.389 Z" fill="#000000" fill-rule="nonzero" fill-opacity="1" /><path clip-path="url(#clip570)" d="M620.354 241.06 L620.354 254.81 L616.072 254.81 L616.072 219.024 L620.354 219.024 L620.354 222.959 Q621.697 220.644 623.734 219.533 Q625.794 218.399 628.641 218.399 Q633.364 218.399 636.303 222.149 Q639.266 225.898 639.266 232.01 Q639.266 238.121 636.303 241.871 Q633.364 245.621 628.641 245.621 Q625.794 245.621 623.734 244.51 Q621.697 243.375 620.354 241.06 M634.845 232.01 Q634.845 227.311 632.901 224.648 Q630.979 221.963 627.6 221.963 Q624.22 221.963 622.276 224.648 Q620.354 227.311 620.354 232.01 Q620.354 236.709 622.276 239.394 Q624.22 242.056 627.6 242.056 Q630.979 242.056 632.901 239.394 Q634.845 236.709 634.845 232.01 Z" fill="#000000" fill-rule="nonzero" fill-opacity="1" /><path clip-path="url(#clip570)" d="M668.502 230.922 L668.502 233.005 L648.919 233.005 Q649.197 237.403 651.558 239.718 Q653.942 242.01 658.178 242.01 Q660.632 242.01 662.924 241.408 Q665.238 240.806 667.507 239.602 L667.507 243.63 Q665.215 244.602 662.808 245.111 Q660.4 245.621 657.924 245.621 Q651.72 245.621 648.086 242.01 Q644.475 238.398 644.475 232.241 Q644.475 225.875 647.901 222.149 Q651.35 218.399 657.183 218.399 Q662.414 218.399 665.447 221.778 Q668.502 225.135 668.502 230.922 M664.243 229.672 Q664.197 226.176 662.275 224.093 Q660.377 222.01 657.229 222.01 Q653.664 222.01 651.512 224.024 Q649.382 226.037 649.058 229.695 L664.243 229.672 Z" fill="#000000" fill-rule="nonzero" fill-opacity="1" /><path clip-path="url(#clip570)" d="M675.331 219.024 L681.558 219.024 L688.919 236.385 L696.303 219.024 L702.484 219.024 L702.484 244.949 L698.201 244.949 L698.201 223.098 L691.048 239.972 L686.789 239.972 L679.613 223.098 L679.613 244.949 L675.331 244.949 L675.331 219.024 Z" fill="#000000" fill-rule="nonzero" fill-opacity="1" /><path clip-path="url(#clip570)" d="M715.539 226.5 Q715.539 228.422 717.021 229.51 Q718.502 230.598 721.257 230.598 L726.997 230.598 L726.997 222.426 L721.257 222.426 Q718.502 222.426 717.021 223.491 Q715.539 224.556 715.539 226.5 M709.474 244.949 L717.391 233.584 Q714.706 232.982 712.923 231.408 Q711.141 229.811 711.141 226.5 Q711.141 222.75 713.618 220.899 Q716.118 219.024 721.141 219.024 L731.28 219.024 L731.28 244.949 L726.997 244.949 L726.997 234 L721.696 234 L714.058 244.949 L709.474 244.949 Z" fill="#000000" fill-rule="nonzero" fill-opacity="1" /><path clip-path="url(#clip570)" d="M758.942 233.005 L758.942 241.547 L765.006 241.547 Q767.923 241.547 769.451 240.459 Q770.979 239.347 770.979 237.264 Q770.979 235.181 769.451 234.093 Q767.923 233.005 765.006 233.005 L758.942 233.005 M758.942 222.426 L758.942 229.602 L764.543 229.602 Q766.951 229.602 768.479 228.653 Q770.006 227.681 770.006 225.968 Q770.006 224.255 768.479 223.352 Q766.951 222.426 764.543 222.426 L758.942 222.426 M754.682 219.024 L764.821 219.024 Q769.381 219.024 771.835 220.69 Q774.289 222.357 774.289 225.436 Q774.289 227.82 773.039 229.232 Q771.789 230.621 769.335 230.968 Q772.275 231.523 773.895 233.283 Q775.516 235.042 775.516 237.681 Q775.516 241.153 772.83 243.051 Q770.168 244.949 765.215 244.949 L754.682 244.949 L754.682 219.024 Z" fill="#000000" fill-rule="nonzero" fill-opacity="1" /><path clip-path="url(#clip570)" d="M807.275 219.024 L811.534 219.024 L811.534 244.949 L807.275 244.949 L807.275 219.024 M809.404 218.399 L809.404 218.399 M798.918 237.264 Q798.918 235.181 797.39 234.093 Q795.886 233.005 792.969 233.005 L786.904 233.005 L786.904 241.547 L792.969 241.547 Q795.886 241.547 797.39 240.459 Q798.918 239.347 798.918 237.264 M782.622 219.024 L786.904 219.024 L786.904 229.602 L793.154 229.602 Q798.108 229.602 800.77 231.5 Q803.455 233.375 803.455 237.264 Q803.455 241.153 800.77 243.051 Q798.108 244.949 793.154 244.949 L782.622 244.949 L782.622 219.024 Z" fill="#000000" fill-rule="nonzero" fill-opacity="1" /><path clip-path="url(#clip570)" d="M835.191 244.949 L835.191 234.047 L827.251 234.047 Q823.71 234.047 821.349 231.848 Q819.219 229.857 819.219 225.598 L819.219 219.024 L823.478 219.024 L823.478 225.204 Q823.478 227.912 824.682 229.278 Q825.909 230.644 828.316 230.644 L835.191 230.644 L835.191 219.024 L839.45 219.024 L839.45 244.949 L835.191 244.949 Z" fill="#000000" fill-rule="nonzero" fill-opacity="1" /><path clip-path="url(#clip570)" d="M870.26 219.024 L870.26 244.949 L866.024 244.949 L866.024 224.139 L853.524 244.949 L848.061 244.949 L848.061 219.024 L852.298 219.024 L852.298 239.787 L864.774 219.024 L870.26 219.024 Z" fill="#000000" fill-rule="nonzero" fill-opacity="1" /><path clip-path="url(#clip570)" d="M897.691 220.019 L897.691 224 Q895.885 223.005 894.057 222.519 Q892.251 222.01 890.399 222.01 Q886.256 222.01 883.964 224.648 Q881.672 227.264 881.672 232.01 Q881.672 236.755 883.964 239.394 Q886.256 242.01 890.399 242.01 Q892.251 242.01 894.057 241.523 Q895.885 241.014 897.691 240.019 L897.691 243.954 Q895.908 244.787 893.987 245.204 Q892.089 245.621 889.936 245.621 Q884.08 245.621 880.631 241.94 Q877.182 238.26 877.182 232.01 Q877.182 225.667 880.654 222.033 Q884.149 218.399 890.214 218.399 Q892.182 218.399 894.057 218.815 Q895.932 219.209 897.691 220.019 Z" fill="#000000" fill-rule="nonzero" fill-opacity="1" /><path clip-path="url(#clip570)" d="M902.39 244.949 L902.39 241.408 Q906.603 240.76 907.899 237.843 Q909.473 233.746 909.473 223.26 L909.473 219.024 L926.996 219.024 L926.996 244.949 L922.737 244.949 L922.737 222.426 L913.732 222.426 L913.732 224.996 Q913.732 234.996 911.695 239.486 Q909.519 244.278 902.39 244.949 Z" fill="#000000" fill-rule="nonzero" fill-opacity="1" /><path clip-path="url(#clip570)" d="M957.575 230.922 L957.575 233.005 L937.992 233.005 Q938.269 237.403 940.63 239.718 Q943.015 242.01 947.251 242.01 Q949.704 242.01 951.996 241.408 Q954.311 240.806 956.579 239.602 L956.579 243.63 Q954.288 244.602 951.88 245.111 Q949.473 245.621 946.996 245.621 Q940.792 245.621 937.158 242.01 Q933.547 238.398 933.547 232.241 Q933.547 225.875 936.973 222.149 Q940.422 218.399 946.255 218.399 Q951.487 218.399 954.519 221.778 Q957.575 225.135 957.575 230.922 M953.316 229.672 Q953.269 226.176 951.348 224.093 Q949.45 222.01 946.302 222.01 Q942.737 222.01 940.584 224.024 Q938.455 226.037 938.13 229.695 L953.316 229.672 Z" fill="#000000" fill-rule="nonzero" fill-opacity="1" /><path clip-path="url(#clip570)" d="M964.403 219.024 L968.686 219.024 L968.686 229.602 L982.505 229.602 L982.505 219.024 L986.788 219.024 L986.788 244.949 L982.505 244.949 L982.505 233.005 L968.686 233.005 L968.686 244.949 L964.403 244.949 L964.403 219.024 Z" fill="#000000" fill-rule="nonzero" fill-opacity="1" /><path clip-path="url(#clip570)" d="M1017.6 219.024 L1017.6 244.949 L1013.36 244.949 L1013.36 224.139 L1000.86 244.949 L995.399 244.949 L995.399 219.024 L999.635 219.024 L999.635 239.787 L1012.11 219.024 L1017.6 219.024 Z" fill="#000000" fill-rule="nonzero" fill-opacity="1" /><path clip-path="url(#clip570)" d="M1030.65 226.5 Q1030.65 228.422 1032.13 229.51 Q1033.62 230.598 1036.37 230.598 L1042.11 230.598 L1042.11 222.426 L1036.37 222.426 Q1033.62 222.426 1032.13 223.491 Q1030.65 224.556 1030.65 226.5 M1024.59 244.949 L1032.5 233.584 Q1029.82 232.982 1028.04 231.408 Q1026.25 229.811 1026.25 226.5 Q1026.25 222.75 1028.73 220.899 Q1031.23 219.024 1036.25 219.024 L1046.39 219.024 L1046.39 244.949 L1042.11 244.949 L1042.11 234 L1036.81 234 L1029.17 244.949 L1024.59 244.949 Z" fill="#000000" fill-rule="nonzero" fill-opacity="1" /></svg>
